<?xml version="1.0" encoding="UTF-8" standalone="no"?>
<!DOCTYPE svg PUBLIC "-//W3C//DTD SVG 1.1//EN"
 "http://www.w3.org/Graphics/SVG/1.1/DTD/svg11.dtd">
<!-- Generated by graphviz version 14.0.5 (0)
 -->
<!-- Title: yard Pages: 1 -->
<svg width="3157pt" height="243pt"
 viewBox="0.00 0.00 3157.00 243.00" xmlns="http://www.w3.org/2000/svg" xmlns:xlink="http://www.w3.org/1999/xlink">
<g id="graph0" class="graph" transform="scale(1 1) rotate(0) translate(4 239)">
<title>yard</title>
<polygon fill="white" stroke="none" points="-4,4 -4,-239 3152.5,-239 3152.5,4 -4,4"/>
<g id="clust1" class="cluster">
<title>cluster_</title>
<polygon fill="none" stroke="black" points="87.5,-8 87.5,-227 3140.5,-227 3140.5,-8 87.5,-8"/>
</g>
<g id="clust2" class="cluster">
<title>cluster_Cinnabar</title>
<polygon fill="none" stroke="black" points="95.5,-16 95.5,-219 2983.5,-219 2983.5,-16 95.5,-16"/>
<text xml:space="preserve" text-anchor="middle" x="1539.5" y="-201.7" font-family="Times,serif" font-size="14.00">Cinnabar</text>
</g>
<g id="clust3" class="cluster">
<title>cluster_Cinnabar_Command</title>
<polygon fill="none" stroke="black" points="103.5,-33.25 103.5,-185.75 1299.5,-185.75 1299.5,-33.25 103.5,-33.25"/>
<text xml:space="preserve" text-anchor="middle" x="701.5" y="-168.45" font-family="Times,serif" font-size="14.00">Command</text>
</g>
<g id="clust10" class="cluster">
<title>cluster_Cinnabar_FnPipe</title>
<polygon fill="none" stroke="black" points="1307.5,-50.5 1307.5,-168.5 1681.5,-168.5 1681.5,-50.5 1307.5,-50.5"/>
<text xml:space="preserve" text-anchor="middle" x="1494.5" y="-151.2" font-family="Times,serif" font-size="14.00">FnPipe</text>
</g>
<g id="clust14" class="cluster">
<title>cluster_Cinnabar_Downloader</title>
<polygon fill="none" stroke="black" points="1689.5,-50.5 1689.5,-168.5 2189.5,-168.5 2189.5,-50.5 1689.5,-50.5"/>
<text xml:space="preserve" text-anchor="middle" x="1939.5" y="-151.2" font-family="Times,serif" font-size="14.00">Downloader</text>
</g>
<!-- Root -->
<g id="node1" class="node">
<title>Root</title>
<polygon fill="none" stroke="black" points="0,-59 0,-134.75 79,-134.75 79,-59 0,-59"/>
<text xml:space="preserve" text-anchor="middle" x="39.5" y="-117.45" font-family="Times,serif" font-size="14.00">root root</text>
<polyline fill="none" stroke="black" points="0,-109.5 79,-109.5"/>
<text xml:space="preserve" text-anchor="middle" x="39.5" y="-92.2" font-family="Times,serif" font-size="14.00"> </text>
<polyline fill="none" stroke="black" points="0,-84.25 79,-84.25"/>
<text xml:space="preserve" text-anchor="middle" x="39.5" y="-66.95" font-family="Times,serif" font-size="14.00"> </text>
</g>
<!-- Cinnabar -->
<g id="node2" class="node">
<title>Cinnabar</title>
<polygon fill="none" stroke="black" points="2994.38,-59 2994.38,-134.75 3132.62,-134.75 3132.62,-59 2994.38,-59"/>
<text xml:space="preserve" text-anchor="middle" x="3063.5" y="-117.45" font-family="Times,serif" font-size="14.00">module Cinnabar</text>
<polyline fill="none" stroke="black" points="2994.38,-109.5 3132.62,-109.5"/>
<text xml:space="preserve" text-anchor="middle" x="3063.5" y="-92.2" font-family="Times,serif" font-size="14.00"> </text>
<polyline fill="none" stroke="black" points="2994.38,-84.25 3132.62,-84.25"/>
<text xml:space="preserve" text-anchor="middle" x="3063.5" y="-66.95" font-family="Times,serif" font-size="14.00"> </text>
</g>
<!-- Cinnabar_Command -->
<g id="node3" class="node">
<title>Cinnabar_Command</title>
<polygon fill="none" stroke="black" points="2199.38,-24.5 2199.38,-169.25 2583.62,-169.25 2583.62,-24.5 2199.38,-24.5"/>
<text xml:space="preserve" text-anchor="middle" x="2391.5" y="-151.95" font-family="Times,serif" font-size="14.00">module Command</text>
<polyline fill="none" stroke="black" points="2199.38,-144 2583.62,-144"/>
<text xml:space="preserve" text-anchor="middle" x="2391.5" y="-126.7" font-family="Times,serif" font-size="14.00"> </text>
<polyline fill="none" stroke="black" points="2199.38,-118.75 2583.62,-118.75"/>
<text xml:space="preserve" text-anchor="start" x="2207.38" y="-101.45" font-family="Times,serif" font-size="14.00">+ async_run : Array(IO, Process::Waiter)</text>
<text xml:space="preserve" text-anchor="start" x="2207.38" y="-84.2" font-family="Times,serif" font-size="14.00">+ normalize_env : Hash{String =&gt; String}</text>
<text xml:space="preserve" text-anchor="start" x="2207.38" y="-66.95" font-family="Times,serif" font-size="14.00">+ run : String</text>
<text xml:space="preserve" text-anchor="start" x="2207.38" y="-49.7" font-family="Times,serif" font-size="14.00">+ run_cmd : Boolean</text>
<text xml:space="preserve" text-anchor="start" x="2207.38" y="-32.45" font-family="Times,serif" font-size="14.00">+ wait_with_output : Array(String, Process::Status)</text>
</g>
<!-- Cinnabar_Command_ArrExt -->
<g id="node4" class="node">
<title>Cinnabar_Command_ArrExt</title>
<polygon fill="none" stroke="black" points="111.5,-41.75 111.5,-152 427.5,-152 427.5,-41.75 111.5,-41.75"/>
<text xml:space="preserve" text-anchor="middle" x="269.5" y="-134.7" font-family="Times,serif" font-size="14.00">module ArrExt</text>
<polyline fill="none" stroke="black" points="111.5,-126.75 427.5,-126.75"/>
<text xml:space="preserve" text-anchor="middle" x="269.5" y="-109.45" font-family="Times,serif" font-size="14.00"> </text>
<polyline fill="none" stroke="black" points="111.5,-101.5 427.5,-101.5"/>
<text xml:space="preserve" text-anchor="start" x="119.5" y="-84.2" font-family="Times,serif" font-size="14.00">+ #async_run : Array(IO, Process::Waiter)</text>
<text xml:space="preserve" text-anchor="start" x="119.5" y="-66.95" font-family="Times,serif" font-size="14.00">+ #run : String</text>
<text xml:space="preserve" text-anchor="start" x="119.5" y="-49.7" font-family="Times,serif" font-size="14.00">+ #run_cmd : Boolean</text>
</g>
<!-- Cinnabar_Command_ArrMixin -->
<g id="node5" class="node">
<title>Cinnabar_Command_ArrMixin</title>
<polygon fill="none" stroke="black" points="445.12,-59 445.12,-134.75 581.88,-134.75 581.88,-59 445.12,-59"/>
<text xml:space="preserve" text-anchor="middle" x="513.5" y="-117.45" font-family="Times,serif" font-size="14.00">module ArrMixin</text>
<polyline fill="none" stroke="black" points="445.12,-109.5 581.88,-109.5"/>
<text xml:space="preserve" text-anchor="middle" x="513.5" y="-92.2" font-family="Times,serif" font-size="14.00"> </text>
<polyline fill="none" stroke="black" points="445.12,-84.25 581.88,-84.25"/>
<text xml:space="preserve" text-anchor="start" x="453.12" y="-66.95" font-family="Times,serif" font-size="14.00">+ included</text>
</g>
<!-- Cinnabar_Command_ArrRefin -->
<g id="node6" class="node">
<title>Cinnabar_Command_ArrRefin</title>
<polygon fill="none" stroke="black" points="599.62,-59 599.62,-134.75 733.38,-134.75 733.38,-59 599.62,-59"/>
<text xml:space="preserve" text-anchor="middle" x="666.5" y="-117.45" font-family="Times,serif" font-size="14.00">module ArrRefin</text>
<polyline fill="none" stroke="black" points="599.62,-109.5 733.38,-109.5"/>
<text xml:space="preserve" text-anchor="middle" x="666.5" y="-92.2" font-family="Times,serif" font-size="14.00"> </text>
<polyline fill="none" stroke="black" points="599.62,-84.25 733.38,-84.25"/>
<text xml:space="preserve" text-anchor="middle" x="666.5" y="-66.95" font-family="Times,serif" font-size="14.00"> </text>
</g>
<!-- Cinnabar_Command_TaskArrExt -->
<g id="node7" class="node">
<title>Cinnabar_Command_TaskArrExt</title>
<polygon fill="none" stroke="black" points="751.75,-59 751.75,-134.75 919.25,-134.75 919.25,-59 751.75,-59"/>
<text xml:space="preserve" text-anchor="middle" x="835.5" y="-117.45" font-family="Times,serif" font-size="14.00">module TaskArrExt</text>
<polyline fill="none" stroke="black" points="751.75,-109.5 919.25,-109.5"/>
<text xml:space="preserve" text-anchor="middle" x="835.5" y="-92.2" font-family="Times,serif" font-size="14.00"> </text>
<polyline fill="none" stroke="black" points="751.75,-84.25 919.25,-84.25"/>
<text xml:space="preserve" text-anchor="start" x="759.75" y="-66.95" font-family="Times,serif" font-size="14.00">+ #wait_with_output</text>
</g>
<!-- Cinnabar_Command_TaskArrRefin -->
<g id="node8" class="node">
<title>Cinnabar_Command_TaskArrRefin</title>
<polygon fill="none" stroke="black" points="937.5,-59 937.5,-134.75 1103.5,-134.75 1103.5,-59 937.5,-59"/>
<text xml:space="preserve" text-anchor="middle" x="1020.5" y="-117.45" font-family="Times,serif" font-size="14.00">module TaskArrRefin</text>
<polyline fill="none" stroke="black" points="937.5,-109.5 1103.5,-109.5"/>
<text xml:space="preserve" text-anchor="middle" x="1020.5" y="-92.2" font-family="Times,serif" font-size="14.00"> </text>
<polyline fill="none" stroke="black" points="937.5,-84.25 1103.5,-84.25"/>
<text xml:space="preserve" text-anchor="middle" x="1020.5" y="-66.95" font-family="Times,serif" font-size="14.00"> </text>
</g>
<!-- Cinnabar_Command_TaskArrMixin -->
<g id="node9" class="node">
<title>Cinnabar_Command_TaskArrMixin</title>
<polygon fill="none" stroke="black" points="1122,-59 1122,-134.75 1291,-134.75 1291,-59 1122,-59"/>
<text xml:space="preserve" text-anchor="middle" x="1206.5" y="-117.45" font-family="Times,serif" font-size="14.00">module TaskArrMixin</text>
<polyline fill="none" stroke="black" points="1122,-109.5 1291,-109.5"/>
<text xml:space="preserve" text-anchor="middle" x="1206.5" y="-92.2" font-family="Times,serif" font-size="14.00"> </text>
<polyline fill="none" stroke="black" points="1122,-84.25 1291,-84.25"/>
<text xml:space="preserve" text-anchor="start" x="1130" y="-66.95" font-family="Times,serif" font-size="14.00">+ included</text>
</g>
<!-- Cinnabar_FnPipe -->
<g id="node10" class="node">
<title>Cinnabar_FnPipe</title>
<polygon fill="none" stroke="black" points="2601.88,-59 2601.88,-134.75 2725.12,-134.75 2725.12,-59 2601.88,-59"/>
<text xml:space="preserve" text-anchor="middle" x="2663.5" y="-117.45" font-family="Times,serif" font-size="14.00">module FnPipe</text>
<polyline fill="none" stroke="black" points="2601.88,-109.5 2725.12,-109.5"/>
<text xml:space="preserve" text-anchor="middle" x="2663.5" y="-92.2" font-family="Times,serif" font-size="14.00"> </text>
<polyline fill="none" stroke="black" points="2601.88,-84.25 2725.12,-84.25"/>
<text xml:space="preserve" text-anchor="start" x="2609.88" y="-66.95" font-family="Times,serif" font-size="14.00">+ ▷</text>
</g>
<!-- Cinnabar_FnPipe_Ext -->
<g id="node11" class="node">
<title>Cinnabar_FnPipe_Ext</title>
<polygon fill="none" stroke="black" points="1315.62,-59 1315.62,-134.75 1413.38,-134.75 1413.38,-59 1315.62,-59"/>
<text xml:space="preserve" text-anchor="middle" x="1364.5" y="-117.45" font-family="Times,serif" font-size="14.00">module Ext</text>
<polyline fill="none" stroke="black" points="1315.62,-109.5 1413.38,-109.5"/>
<text xml:space="preserve" text-anchor="middle" x="1364.5" y="-92.2" font-family="Times,serif" font-size="14.00"> </text>
<polyline fill="none" stroke="black" points="1315.62,-84.25 1413.38,-84.25"/>
<text xml:space="preserve" text-anchor="start" x="1323.62" y="-66.95" font-family="Times,serif" font-size="14.00">+ #▷</text>
</g>
<!-- Cinnabar_FnPipe_Mixin -->
<g id="node12" class="node">
<title>Cinnabar_FnPipe_Mixin</title>
<polygon fill="none" stroke="black" points="1431.75,-59 1431.75,-134.75 1545.25,-134.75 1545.25,-59 1431.75,-59"/>
<text xml:space="preserve" text-anchor="middle" x="1488.5" y="-117.45" font-family="Times,serif" font-size="14.00">module Mixin</text>
<polyline fill="none" stroke="black" points="1431.75,-109.5 1545.25,-109.5"/>
<text xml:space="preserve" text-anchor="middle" x="1488.5" y="-92.2" font-family="Times,serif" font-size="14.00"> </text>
<polyline fill="none" stroke="black" points="1431.75,-84.25 1545.25,-84.25"/>
<text xml:space="preserve" text-anchor="start" x="1439.75" y="-66.95" font-family="Times,serif" font-size="14.00">+ included</text>
</g>
<!-- Cinnabar_FnPipe_Refin -->
<g id="node13" class="node">
<title>Cinnabar_FnPipe_Refin</title>
<polygon fill="none" stroke="black" points="1563.25,-59 1563.25,-134.75 1673.75,-134.75 1673.75,-59 1563.25,-59"/>
<text xml:space="preserve" text-anchor="middle" x="1618.5" y="-117.45" font-family="Times,serif" font-size="14.00">module Refin</text>
<polyline fill="none" stroke="black" points="1563.25,-109.5 1673.75,-109.5"/>
<text xml:space="preserve" text-anchor="middle" x="1618.5" y="-92.2" font-family="Times,serif" font-size="14.00"> </text>
<polyline fill="none" stroke="black" points="1563.25,-84.25 1673.75,-84.25"/>
<text xml:space="preserve" text-anchor="middle" x="1618.5" y="-66.95" font-family="Times,serif" font-size="14.00"> </text>
</g>
<!-- Cinnabar_Downloader -->
<g id="node14" class="node">
<title>Cinnabar_Downloader</title>
<polygon fill="none" stroke="black" points="2743.12,-33.12 2743.12,-160.62 2975.88,-160.62 2975.88,-33.12 2743.12,-33.12"/>
<text xml:space="preserve" text-anchor="middle" x="2859.5" y="-143.32" font-family="Times,serif" font-size="14.00">module Downloader</text>
<polyline fill="none" stroke="black" points="2743.12,-135.38 2975.88,-135.38"/>
<text xml:space="preserve" text-anchor="middle" x="2859.5" y="-118.08" font-family="Times,serif" font-size="14.00"> </text>
<polyline fill="none" stroke="black" points="2743.12,-110.12 2975.88,-110.12"/>
<text xml:space="preserve" text-anchor="start" x="2751.12" y="-92.83" font-family="Times,serif" font-size="14.00">+ build_headers : Hash</text>
<text xml:space="preserve" text-anchor="start" x="2751.12" y="-75.58" font-family="Times,serif" font-size="14.00">+ determine_filename : String</text>
<text xml:space="preserve" text-anchor="start" x="2751.12" y="-58.33" font-family="Times,serif" font-size="14.00">+ download : Integer</text>
<text xml:space="preserve" text-anchor="start" x="2751.12" y="-41.08" font-family="Times,serif" font-size="14.00">+ setup_file_path : Pathname</text>
</g>
<!-- Cinnabar_Downloader_StrExt -->
<g id="node15" class="node">
<title>Cinnabar_Downloader_StrExt</title>
<polygon fill="none" stroke="black" points="1697.12,-59 1697.12,-134.75 1875.88,-134.75 1875.88,-59 1697.12,-59"/>
<text xml:space="preserve" text-anchor="middle" x="1786.5" y="-117.45" font-family="Times,serif" font-size="14.00">module StrExt</text>
<polyline fill="none" stroke="black" points="1697.12,-109.5 1875.88,-109.5"/>
<text xml:space="preserve" text-anchor="middle" x="1786.5" y="-92.2" font-family="Times,serif" font-size="14.00"> </text>
<polyline fill="none" stroke="black" points="1697.12,-84.25 1875.88,-84.25"/>
<text xml:space="preserve" text-anchor="start" x="1705.12" y="-66.95" font-family="Times,serif" font-size="14.00">+ #download : Integer</text>
</g>
<!-- Cinnabar_Downloader_StrMixin -->
<g id="node16" class="node">
<title>Cinnabar_Downloader_StrMixin</title>
<polygon fill="none" stroke="black" points="1893.5,-59 1893.5,-134.75 2029.5,-134.75 2029.5,-59 1893.5,-59"/>
<text xml:space="preserve" text-anchor="middle" x="1961.5" y="-117.45" font-family="Times,serif" font-size="14.00">module StrMixin</text>
<polyline fill="none" stroke="black" points="1893.5,-109.5 2029.5,-109.5"/>
<text xml:space="preserve" text-anchor="middle" x="1961.5" y="-92.2" font-family="Times,serif" font-size="14.00"> </text>
<polyline fill="none" stroke="black" points="1893.5,-84.25 2029.5,-84.25"/>
<text xml:space="preserve" text-anchor="start" x="1901.5" y="-66.95" font-family="Times,serif" font-size="14.00">+ included</text>
</g>
<!-- Cinnabar_Downloader_StrRefin -->
<g id="node17" class="node">
<title>Cinnabar_Downloader_StrRefin</title>
<polygon fill="none" stroke="black" points="2048,-59 2048,-134.75 2181,-134.75 2181,-59 2048,-59"/>
<text xml:space="preserve" text-anchor="middle" x="2114.5" y="-117.45" font-family="Times,serif" font-size="14.00">module StrRefin</text>
<polyline fill="none" stroke="black" points="2048,-109.5 2181,-109.5"/>
<text xml:space="preserve" text-anchor="middle" x="2114.5" y="-92.2" font-family="Times,serif" font-size="14.00"> </text>
<polyline fill="none" stroke="black" points="2048,-84.25 2181,-84.25"/>
<text xml:space="preserve" text-anchor="middle" x="2114.5" y="-66.95" font-family="Times,serif" font-size="14.00"> </text>
</g>
</g>
</svg>
