<?xml version="1.0" encoding="UTF-8" standalone="no"?>
<!DOCTYPE svg PUBLIC "-//W3C//DTD SVG 1.1//EN"
 "http://www.w3.org/Graphics/SVG/1.1/DTD/svg11.dtd">
<!-- Generated by graphviz version 14.0.5 (0)
 -->
<!-- Title: yard Pages: 1 -->
<svg width="2609pt" height="226pt"
 viewBox="0.00 0.00 2609.00 226.00" xmlns="http://www.w3.org/2000/svg" xmlns:xlink="http://www.w3.org/1999/xlink">
<g id="graph0" class="graph" transform="scale(1 1) rotate(0) translate(4 221.75)">
<title>yard</title>
<polygon fill="white" stroke="none" points="-4,4 -4,-221.75 2604.5,-221.75 2604.5,4 -4,4"/>
<g id="clust1" class="cluster">
<title>cluster_</title>
<polygon fill="none" stroke="black" points="87.5,-8 87.5,-209.75 2592.5,-209.75 2592.5,-8 87.5,-8"/>
</g>
<g id="clust2" class="cluster">
<title>cluster_Cinnabar</title>
<polygon fill="none" stroke="black" points="95.5,-16 95.5,-201.75 2435.5,-201.75 2435.5,-16 95.5,-16"/>
<text xml:space="preserve" text-anchor="middle" x="1265.5" y="-184.45" font-family="Times,serif" font-size="14.00">Cinnabar</text>
</g>
<g id="clust3" class="cluster">
<title>cluster_Cinnabar_Command</title>
<polygon fill="none" stroke="black" points="103.5,-33.25 103.5,-168.5 741.5,-168.5 741.5,-33.25 103.5,-33.25"/>
<text xml:space="preserve" text-anchor="middle" x="422.5" y="-151.2" font-family="Times,serif" font-size="14.00">Command</text>
</g>
<g id="clust7" class="cluster">
<title>cluster_Cinnabar_FnPipe</title>
<polygon fill="none" stroke="black" points="749.5,-41.88 749.5,-159.88 1169.5,-159.88 1169.5,-41.88 749.5,-41.88"/>
<text xml:space="preserve" text-anchor="middle" x="959.5" y="-142.57" font-family="Times,serif" font-size="14.00">FnPipe</text>
</g>
<g id="clust11" class="cluster">
<title>cluster_Cinnabar_Downloader</title>
<polygon fill="none" stroke="black" points="1177.5,-41.88 1177.5,-159.88 1641.5,-159.88 1641.5,-41.88 1177.5,-41.88"/>
<text xml:space="preserve" text-anchor="middle" x="1409.5" y="-142.57" font-family="Times,serif" font-size="14.00">Downloader</text>
</g>
<!-- Root -->
<g id="node1" class="node">
<title>Root</title>
<polygon fill="none" stroke="black" points="0,-50.38 0,-126.12 79,-126.12 79,-50.38 0,-50.38"/>
<text xml:space="preserve" text-anchor="middle" x="39.5" y="-108.83" font-family="Times,serif" font-size="14.00">root root</text>
<polyline fill="none" stroke="black" points="0,-100.88 79,-100.88"/>
<text xml:space="preserve" text-anchor="middle" x="39.5" y="-83.58" font-family="Times,serif" font-size="14.00"> </text>
<polyline fill="none" stroke="black" points="0,-75.62 79,-75.62"/>
<text xml:space="preserve" text-anchor="middle" x="39.5" y="-58.33" font-family="Times,serif" font-size="14.00"> </text>
</g>
<!-- Cinnabar -->
<g id="node2" class="node">
<title>Cinnabar</title>
<polygon fill="none" stroke="black" points="2446.38,-50.38 2446.38,-126.12 2584.62,-126.12 2584.62,-50.38 2446.38,-50.38"/>
<text xml:space="preserve" text-anchor="middle" x="2515.5" y="-108.83" font-family="Times,serif" font-size="14.00">module Cinnabar</text>
<polyline fill="none" stroke="black" points="2446.38,-100.88 2584.62,-100.88"/>
<text xml:space="preserve" text-anchor="middle" x="2515.5" y="-83.58" font-family="Times,serif" font-size="14.00"> </text>
<polyline fill="none" stroke="black" points="2446.38,-75.62 2584.62,-75.62"/>
<text xml:space="preserve" text-anchor="middle" x="2515.5" y="-58.33" font-family="Times,serif" font-size="14.00"> </text>
</g>
<!-- Cinnabar_Command -->
<g id="node3" class="node">
<title>Cinnabar_Command</title>
<polygon fill="none" stroke="black" points="1651.38,-24.5 1651.38,-152 2035.62,-152 2035.62,-24.5 1651.38,-24.5"/>
<text xml:space="preserve" text-anchor="middle" x="1843.5" y="-134.7" font-family="Times,serif" font-size="14.00">module Command</text>
<polyline fill="none" stroke="black" points="1651.38,-126.75 2035.62,-126.75"/>
<text xml:space="preserve" text-anchor="middle" x="1843.5" y="-109.45" font-family="Times,serif" font-size="14.00"> </text>
<polyline fill="none" stroke="black" points="1651.38,-101.5 2035.62,-101.5"/>
<text xml:space="preserve" text-anchor="start" x="1659.38" y="-84.2" font-family="Times,serif" font-size="14.00">+ async_run : Array(IO, Process::Waiter)</text>
<text xml:space="preserve" text-anchor="start" x="1659.38" y="-66.95" font-family="Times,serif" font-size="14.00">+ normalize_env : Hash{String =&gt; String}</text>
<text xml:space="preserve" text-anchor="start" x="1659.38" y="-49.7" font-family="Times,serif" font-size="14.00">+ run : String</text>
<text xml:space="preserve" text-anchor="start" x="1659.38" y="-32.45" font-family="Times,serif" font-size="14.00">+ wait_with_output : Array(String, Process::Status)</text>
</g>
<!-- Cinnabar_Command_ArrExt -->
<g id="node4" class="node">
<title>Cinnabar_Command_ArrExt</title>
<polygon fill="none" stroke="black" points="111.5,-41.75 111.5,-134.75 427.5,-134.75 427.5,-41.75 111.5,-41.75"/>
<text xml:space="preserve" text-anchor="middle" x="269.5" y="-117.45" font-family="Times,serif" font-size="14.00">module ArrExt</text>
<polyline fill="none" stroke="black" points="111.5,-109.5 427.5,-109.5"/>
<text xml:space="preserve" text-anchor="middle" x="269.5" y="-92.2" font-family="Times,serif" font-size="14.00"> </text>
<polyline fill="none" stroke="black" points="111.5,-84.25 427.5,-84.25"/>
<text xml:space="preserve" text-anchor="start" x="119.5" y="-66.95" font-family="Times,serif" font-size="14.00">+ #async_run : Array(IO, Process::Waiter)</text>
<text xml:space="preserve" text-anchor="start" x="119.5" y="-49.7" font-family="Times,serif" font-size="14.00">+ #run : String</text>
</g>
<!-- Cinnabar_Command_ArrMixin -->
<g id="node5" class="node">
<title>Cinnabar_Command_ArrMixin</title>
<polygon fill="none" stroke="black" points="445.12,-50.38 445.12,-126.12 581.88,-126.12 581.88,-50.38 445.12,-50.38"/>
<text xml:space="preserve" text-anchor="middle" x="513.5" y="-108.83" font-family="Times,serif" font-size="14.00">module ArrMixin</text>
<polyline fill="none" stroke="black" points="445.12,-100.88 581.88,-100.88"/>
<text xml:space="preserve" text-anchor="middle" x="513.5" y="-83.58" font-family="Times,serif" font-size="14.00"> </text>
<polyline fill="none" stroke="black" points="445.12,-75.62 581.88,-75.62"/>
<text xml:space="preserve" text-anchor="start" x="453.12" y="-58.33" font-family="Times,serif" font-size="14.00">+ included</text>
</g>
<!-- Cinnabar_Command_ArrRefin -->
<g id="node6" class="node">
<title>Cinnabar_Command_ArrRefin</title>
<polygon fill="none" stroke="black" points="599.62,-50.38 599.62,-126.12 733.38,-126.12 733.38,-50.38 599.62,-50.38"/>
<text xml:space="preserve" text-anchor="middle" x="666.5" y="-108.83" font-family="Times,serif" font-size="14.00">module ArrRefin</text>
<polyline fill="none" stroke="black" points="599.62,-100.88 733.38,-100.88"/>
<text xml:space="preserve" text-anchor="middle" x="666.5" y="-83.58" font-family="Times,serif" font-size="14.00"> </text>
<polyline fill="none" stroke="black" points="599.62,-75.62 733.38,-75.62"/>
<text xml:space="preserve" text-anchor="middle" x="666.5" y="-58.33" font-family="Times,serif" font-size="14.00"> </text>
</g>
<!-- Cinnabar_FnPipe -->
<g id="node7" class="node">
<title>Cinnabar_FnPipe</title>
<polygon fill="none" stroke="black" points="2053.88,-50.38 2053.88,-126.12 2177.12,-126.12 2177.12,-50.38 2053.88,-50.38"/>
<text xml:space="preserve" text-anchor="middle" x="2115.5" y="-108.83" font-family="Times,serif" font-size="14.00">module FnPipe</text>
<polyline fill="none" stroke="black" points="2053.88,-100.88 2177.12,-100.88"/>
<text xml:space="preserve" text-anchor="middle" x="2115.5" y="-83.58" font-family="Times,serif" font-size="14.00"> </text>
<polyline fill="none" stroke="black" points="2053.88,-75.62 2177.12,-75.62"/>
<text xml:space="preserve" text-anchor="start" x="2061.88" y="-58.33" font-family="Times,serif" font-size="14.00">+ ▷</text>
</g>
<!-- Cinnabar_FnPipe_Ext -->
<g id="node8" class="node">
<title>Cinnabar_FnPipe_Ext</title>
<polygon fill="none" stroke="black" points="757.38,-50.38 757.38,-126.12 901.62,-126.12 901.62,-50.38 757.38,-50.38"/>
<text xml:space="preserve" text-anchor="middle" x="829.5" y="-108.83" font-family="Times,serif" font-size="14.00">module Ext</text>
<polyline fill="none" stroke="black" points="757.38,-100.88 901.62,-100.88"/>
<text xml:space="preserve" text-anchor="middle" x="829.5" y="-83.58" font-family="Times,serif" font-size="14.00"> </text>
<polyline fill="none" stroke="black" points="757.38,-75.62 901.62,-75.62"/>
<text xml:space="preserve" text-anchor="start" x="765.38" y="-58.33" font-family="Times,serif" font-size="14.00">+ #▷</text>
</g>
<!-- Cinnabar_FnPipe_Mixin -->
<g id="node9" class="node">
<title>Cinnabar_FnPipe_Mixin</title>
<polygon fill="none" stroke="black" points="919.75,-50.38 919.75,-126.12 1033.25,-126.12 1033.25,-50.38 919.75,-50.38"/>
<text xml:space="preserve" text-anchor="middle" x="976.5" y="-108.83" font-family="Times,serif" font-size="14.00">module Mixin</text>
<polyline fill="none" stroke="black" points="919.75,-100.88 1033.25,-100.88"/>
<text xml:space="preserve" text-anchor="middle" x="976.5" y="-83.58" font-family="Times,serif" font-size="14.00"> </text>
<polyline fill="none" stroke="black" points="919.75,-75.62 1033.25,-75.62"/>
<text xml:space="preserve" text-anchor="start" x="927.75" y="-58.33" font-family="Times,serif" font-size="14.00">+ included</text>
</g>
<!-- Cinnabar_FnPipe_Refin -->
<g id="node10" class="node">
<title>Cinnabar_FnPipe_Refin</title>
<polygon fill="none" stroke="black" points="1051.25,-50.38 1051.25,-126.12 1161.75,-126.12 1161.75,-50.38 1051.25,-50.38"/>
<text xml:space="preserve" text-anchor="middle" x="1106.5" y="-108.83" font-family="Times,serif" font-size="14.00">module Refin</text>
<polyline fill="none" stroke="black" points="1051.25,-100.88 1161.75,-100.88"/>
<text xml:space="preserve" text-anchor="middle" x="1106.5" y="-83.58" font-family="Times,serif" font-size="14.00"> </text>
<polyline fill="none" stroke="black" points="1051.25,-75.62 1161.75,-75.62"/>
<text xml:space="preserve" text-anchor="middle" x="1106.5" y="-58.33" font-family="Times,serif" font-size="14.00"> </text>
</g>
<!-- Cinnabar_Downloader -->
<g id="node11" class="node">
<title>Cinnabar_Downloader</title>
<polygon fill="none" stroke="black" points="2195.12,-24.5 2195.12,-152 2427.88,-152 2427.88,-24.5 2195.12,-24.5"/>
<text xml:space="preserve" text-anchor="middle" x="2311.5" y="-134.7" font-family="Times,serif" font-size="14.00">module Downloader</text>
<polyline fill="none" stroke="black" points="2195.12,-126.75 2427.88,-126.75"/>
<text xml:space="preserve" text-anchor="middle" x="2311.5" y="-109.45" font-family="Times,serif" font-size="14.00"> </text>
<polyline fill="none" stroke="black" points="2195.12,-101.5 2427.88,-101.5"/>
<text xml:space="preserve" text-anchor="start" x="2203.12" y="-84.2" font-family="Times,serif" font-size="14.00">+ build_headers : Hash</text>
<text xml:space="preserve" text-anchor="start" x="2203.12" y="-66.95" font-family="Times,serif" font-size="14.00">+ determine_filename : String</text>
<text xml:space="preserve" text-anchor="start" x="2203.12" y="-49.7" font-family="Times,serif" font-size="14.00">+ download : Integer</text>
<text xml:space="preserve" text-anchor="start" x="2203.12" y="-32.45" font-family="Times,serif" font-size="14.00">+ setup_file_path : Pathname</text>
</g>
<!-- Cinnabar_Downloader_StrExt -->
<g id="node12" class="node">
<title>Cinnabar_Downloader_StrExt</title>
<polygon fill="none" stroke="black" points="1185.12,-50.38 1185.12,-126.12 1327.88,-126.12 1327.88,-50.38 1185.12,-50.38"/>
<text xml:space="preserve" text-anchor="middle" x="1256.5" y="-108.83" font-family="Times,serif" font-size="14.00">module StrExt</text>
<polyline fill="none" stroke="black" points="1185.12,-100.88 1327.88,-100.88"/>
<text xml:space="preserve" text-anchor="middle" x="1256.5" y="-83.58" font-family="Times,serif" font-size="14.00"> </text>
<polyline fill="none" stroke="black" points="1185.12,-75.62 1327.88,-75.62"/>
<text xml:space="preserve" text-anchor="start" x="1193.12" y="-58.33" font-family="Times,serif" font-size="14.00">+ #download</text>
</g>
<!-- Cinnabar_Downloader_StrMixin -->
<g id="node13" class="node">
<title>Cinnabar_Downloader_StrMixin</title>
<polygon fill="none" stroke="black" points="1345.5,-50.38 1345.5,-126.12 1481.5,-126.12 1481.5,-50.38 1345.5,-50.38"/>
<text xml:space="preserve" text-anchor="middle" x="1413.5" y="-108.83" font-family="Times,serif" font-size="14.00">module StrMixin</text>
<polyline fill="none" stroke="black" points="1345.5,-100.88 1481.5,-100.88"/>
<text xml:space="preserve" text-anchor="middle" x="1413.5" y="-83.58" font-family="Times,serif" font-size="14.00"> </text>
<polyline fill="none" stroke="black" points="1345.5,-75.62 1481.5,-75.62"/>
<text xml:space="preserve" text-anchor="start" x="1353.5" y="-58.33" font-family="Times,serif" font-size="14.00">+ included</text>
</g>
<!-- Cinnabar_Downloader_StrRefin -->
<g id="node14" class="node">
<title>Cinnabar_Downloader_StrRefin</title>
<polygon fill="none" stroke="black" points="1500,-50.38 1500,-126.12 1633,-126.12 1633,-50.38 1500,-50.38"/>
<text xml:space="preserve" text-anchor="middle" x="1566.5" y="-108.83" font-family="Times,serif" font-size="14.00">module StrRefin</text>
<polyline fill="none" stroke="black" points="1500,-100.88 1633,-100.88"/>
<text xml:space="preserve" text-anchor="middle" x="1566.5" y="-83.58" font-family="Times,serif" font-size="14.00"> </text>
<polyline fill="none" stroke="black" points="1500,-75.62 1633,-75.62"/>
<text xml:space="preserve" text-anchor="middle" x="1566.5" y="-58.33" font-family="Times,serif" font-size="14.00"> </text>
</g>
</g>
</svg>
