<?xml version="1.0" encoding="UTF-8" standalone="no"?>
<!DOCTYPE svg PUBLIC "-//W3C//DTD SVG 1.1//EN"
 "http://www.w3.org/Graphics/SVG/1.1/DTD/svg11.dtd">
<!-- Generated by graphviz version 2.42.4 (0)
 -->
<!-- Title: yard Pages: 1 -->
<svg width="4220pt" height="225pt"
 viewBox="0.00 0.00 4220.00 225.00" xmlns="http://www.w3.org/2000/svg" xmlns:xlink="http://www.w3.org/1999/xlink">
<g id="graph0" class="graph" transform="scale(1 1) rotate(0) translate(4 221)">
<title>yard</title>
<polygon fill="white" stroke="transparent" points="-4,4 -4,-221 4216,-221 4216,4 -4,4"/>
<g id="clust1" class="cluster">
<title>cluster_</title>
<polygon fill="none" stroke="black" points="90,-8 90,-209 4204,-209 4204,-8 90,-8"/>
</g>
<g id="clust2" class="cluster">
<title>cluster_Cinnabar</title>
<polygon fill="none" stroke="black" points="279,-16 279,-201 4196,-201 4196,-16 279,-16"/>
<text text-anchor="middle" x="2237.5" y="-185.8" font-family="Times,serif" font-size="14.00">Cinnabar</text>
</g>
<g id="clust3" class="cluster">
<title>cluster_Cinnabar_StrToPath</title>
<polygon fill="none" stroke="black" points="3705,-46 3705,-155 4188,-155 4188,-46 3705,-46"/>
<text text-anchor="middle" x="3946.5" y="-139.8" font-family="Times,serif" font-size="14.00">StrToPath</text>
</g>
<g id="clust8" class="cluster">
<title>cluster_Cinnabar_FnPipe</title>
<polygon fill="none" stroke="black" points="3323,-46 3323,-155 3697,-155 3697,-46 3323,-46"/>
<text text-anchor="middle" x="3510" y="-139.8" font-family="Times,serif" font-size="14.00">FnPipe</text>
</g>
<g id="clust12" class="cluster">
<title>cluster_Cinnabar_Command</title>
<polygon fill="none" stroke="black" points="2116,-31 2116,-170 3315,-170 3315,-31 2116,-31"/>
<text text-anchor="middle" x="2715.5" y="-154.8" font-family="Times,serif" font-size="14.00">Command</text>
</g>
<g id="clust19" class="cluster">
<title>cluster_Cinnabar_Downloader</title>
<polygon fill="none" stroke="black" points="1606,-46 1606,-155 2108,-155 2108,-46 1606,-46"/>
<text text-anchor="middle" x="1857" y="-139.8" font-family="Times,serif" font-size="14.00">Downloader</text>
</g>
<!-- Root -->
<g id="node1" class="node">
<title>Root</title>
<polygon fill="none" stroke="black" points="0,-54.5 0,-123.5 80,-123.5 80,-54.5 0,-54.5"/>
<text text-anchor="middle" x="40" y="-108.3" font-family="Times,serif" font-size="14.00">root root</text>
<polyline fill="none" stroke="black" points="0,-100.5 80,-100.5 "/>
<text text-anchor="middle" x="40" y="-85.3" font-family="Times,serif" font-size="14.00"> </text>
<polyline fill="none" stroke="black" points="0,-77.5 80,-77.5 "/>
<text text-anchor="middle" x="40" y="-62.3" font-family="Times,serif" font-size="14.00"> </text>
</g>
<!-- Cinnabar -->
<g id="node2" class="node">
<title>Cinnabar</title>
<polygon fill="none" stroke="black" points="98,-54.5 98,-123.5 268,-123.5 268,-54.5 98,-54.5"/>
<text text-anchor="middle" x="183" y="-108.3" font-family="Times,serif" font-size="14.00">module Cinnabar</text>
<polyline fill="none" stroke="black" points="98,-100.5 268,-100.5 "/>
<text text-anchor="middle" x="183" y="-85.3" font-family="Times,serif" font-size="14.00"> </text>
<polyline fill="none" stroke="black" points="98,-77.5 268,-77.5 "/>
<text text-anchor="start" x="106" y="-62.3" font-family="Times,serif" font-size="14.00">+ to_path_proc : Proc</text>
</g>
<!-- Cinnabar_StrToPath -->
<g id="node3" class="node">
<title>Cinnabar_StrToPath</title>
<polygon fill="none" stroke="black" points="1451.5,-54.5 1451.5,-123.5 1596.5,-123.5 1596.5,-54.5 1451.5,-54.5"/>
<text text-anchor="middle" x="1524" y="-108.3" font-family="Times,serif" font-size="14.00">module StrToPath</text>
<polyline fill="none" stroke="black" points="1451.5,-100.5 1596.5,-100.5 "/>
<text text-anchor="middle" x="1524" y="-85.3" font-family="Times,serif" font-size="14.00"> </text>
<polyline fill="none" stroke="black" points="1451.5,-77.5 1596.5,-77.5 "/>
<text text-anchor="middle" x="1524" y="-62.3" font-family="Times,serif" font-size="14.00"> </text>
</g>
<!-- Cinnabar_StrToPath_Ext -->
<g id="node4" class="node">
<title>Cinnabar_StrToPath_Ext</title>
<polygon fill="none" stroke="black" points="3996.5,-54.5 3996.5,-123.5 4179.5,-123.5 4179.5,-54.5 3996.5,-54.5"/>
<text text-anchor="middle" x="4088" y="-108.3" font-family="Times,serif" font-size="14.00">module Ext</text>
<polyline fill="none" stroke="black" points="3996.5,-100.5 4179.5,-100.5 "/>
<text text-anchor="middle" x="4088" y="-85.3" font-family="Times,serif" font-size="14.00"> </text>
<polyline fill="none" stroke="black" points="3996.5,-77.5 4179.5,-77.5 "/>
<text text-anchor="start" x="4004.5" y="-62.3" font-family="Times,serif" font-size="14.00">+ #to_path : Pathname</text>
</g>
<!-- Cinnabar_StrToPath_Mixin -->
<g id="node5" class="node">
<title>Cinnabar_StrToPath_Mixin</title>
<polygon fill="none" stroke="black" points="3841.5,-54.5 3841.5,-123.5 3978.5,-123.5 3978.5,-54.5 3841.5,-54.5"/>
<text text-anchor="middle" x="3910" y="-108.3" font-family="Times,serif" font-size="14.00">module Mixin</text>
<polyline fill="none" stroke="black" points="3841.5,-100.5 3978.5,-100.5 "/>
<text text-anchor="middle" x="3910" y="-85.3" font-family="Times,serif" font-size="14.00"> </text>
<polyline fill="none" stroke="black" points="3841.5,-77.5 3978.5,-77.5 "/>
<text text-anchor="start" x="3849.5" y="-62.3" font-family="Times,serif" font-size="14.00">+ included : void</text>
</g>
<!-- Cinnabar_StrToPath_Refin -->
<g id="node6" class="node">
<title>Cinnabar_StrToPath_Refin</title>
<polygon fill="none" stroke="black" points="3713,-54.5 3713,-123.5 3823,-123.5 3823,-54.5 3713,-54.5"/>
<text text-anchor="middle" x="3768" y="-108.3" font-family="Times,serif" font-size="14.00">module Refin</text>
<polyline fill="none" stroke="black" points="3713,-100.5 3823,-100.5 "/>
<text text-anchor="middle" x="3768" y="-85.3" font-family="Times,serif" font-size="14.00"> </text>
<polyline fill="none" stroke="black" points="3713,-77.5 3823,-77.5 "/>
<text text-anchor="middle" x="3768" y="-62.3" font-family="Times,serif" font-size="14.00"> </text>
</g>
<!-- Cinnabar_Path -->
<g id="node7" class="node">
<title>Cinnabar_Path</title>
<polygon fill="none" stroke="black" points="1083,-24.5 1083,-153.5 1433,-153.5 1433,-24.5 1083,-24.5"/>
<text text-anchor="middle" x="1258" y="-138.3" font-family="Times,serif" font-size="14.00">module Path</text>
<polyline fill="none" stroke="black" points="1083,-130.5 1433,-130.5 "/>
<text text-anchor="middle" x="1258" y="-115.3" font-family="Times,serif" font-size="14.00"> </text>
<polyline fill="none" stroke="black" points="1083,-107.5 1433,-107.5 "/>
<text text-anchor="start" x="1091" y="-92.3" font-family="Times,serif" font-size="14.00">+ append_load_path : void</text>
<text text-anchor="start" x="1091" y="-77.3" font-family="Times,serif" font-size="14.00">+ decode_cache_file : Hash{String =&gt; String}</text>
<text text-anchor="start" x="1091" y="-62.3" font-family="Times,serif" font-size="14.00">+ encode_cache_hash : String</text>
<text text-anchor="start" x="1091" y="-47.3" font-family="Times,serif" font-size="14.00">+ find_and_append_load_path : void</text>
<text text-anchor="start" x="1091" y="-32.3" font-family="Times,serif" font-size="14.00">+ gem_dir_with_retry : String</text>
</g>
<!-- Cinnabar_FnPipe -->
<g id="node8" class="node">
<title>Cinnabar_FnPipe</title>
<polygon fill="none" stroke="black" points="941,-54.5 941,-123.5 1065,-123.5 1065,-54.5 941,-54.5"/>
<text text-anchor="middle" x="1003" y="-108.3" font-family="Times,serif" font-size="14.00">module FnPipe</text>
<polyline fill="none" stroke="black" points="941,-100.5 1065,-100.5 "/>
<text text-anchor="middle" x="1003" y="-85.3" font-family="Times,serif" font-size="14.00"> </text>
<polyline fill="none" stroke="black" points="941,-77.5 1065,-77.5 "/>
<text text-anchor="start" x="949" y="-62.3" font-family="Times,serif" font-size="14.00">+ ▷</text>
</g>
<!-- Cinnabar_FnPipe_Ext -->
<g id="node9" class="node">
<title>Cinnabar_FnPipe_Ext</title>
<polygon fill="none" stroke="black" points="3591,-54.5 3591,-123.5 3689,-123.5 3689,-54.5 3591,-54.5"/>
<text text-anchor="middle" x="3640" y="-108.3" font-family="Times,serif" font-size="14.00">module Ext</text>
<polyline fill="none" stroke="black" points="3591,-100.5 3689,-100.5 "/>
<text text-anchor="middle" x="3640" y="-85.3" font-family="Times,serif" font-size="14.00"> </text>
<polyline fill="none" stroke="black" points="3591,-77.5 3689,-77.5 "/>
<text text-anchor="start" x="3599" y="-62.3" font-family="Times,serif" font-size="14.00">+ #▷</text>
</g>
<!-- Cinnabar_FnPipe_Mixin -->
<g id="node10" class="node">
<title>Cinnabar_FnPipe_Mixin</title>
<polygon fill="none" stroke="black" points="3459,-54.5 3459,-123.5 3573,-123.5 3573,-54.5 3459,-54.5"/>
<text text-anchor="middle" x="3516" y="-108.3" font-family="Times,serif" font-size="14.00">module Mixin</text>
<polyline fill="none" stroke="black" points="3459,-100.5 3573,-100.5 "/>
<text text-anchor="middle" x="3516" y="-85.3" font-family="Times,serif" font-size="14.00"> </text>
<polyline fill="none" stroke="black" points="3459,-77.5 3573,-77.5 "/>
<text text-anchor="start" x="3467" y="-62.3" font-family="Times,serif" font-size="14.00">+ included</text>
</g>
<!-- Cinnabar_FnPipe_Refin -->
<g id="node11" class="node">
<title>Cinnabar_FnPipe_Refin</title>
<polygon fill="none" stroke="black" points="3331,-54.5 3331,-123.5 3441,-123.5 3441,-54.5 3331,-54.5"/>
<text text-anchor="middle" x="3386" y="-108.3" font-family="Times,serif" font-size="14.00">module Refin</text>
<polyline fill="none" stroke="black" points="3331,-100.5 3441,-100.5 "/>
<text text-anchor="middle" x="3386" y="-85.3" font-family="Times,serif" font-size="14.00"> </text>
<polyline fill="none" stroke="black" points="3331,-77.5 3441,-77.5 "/>
<text text-anchor="middle" x="3386" y="-62.3" font-family="Times,serif" font-size="14.00"> </text>
</g>
<!-- Cinnabar_Command -->
<g id="node12" class="node">
<title>Cinnabar_Command</title>
<polygon fill="none" stroke="black" points="537.5,-24.5 537.5,-153.5 922.5,-153.5 922.5,-24.5 537.5,-24.5"/>
<text text-anchor="middle" x="730" y="-138.3" font-family="Times,serif" font-size="14.00">module Command</text>
<polyline fill="none" stroke="black" points="537.5,-130.5 922.5,-130.5 "/>
<text text-anchor="middle" x="730" y="-115.3" font-family="Times,serif" font-size="14.00"> </text>
<polyline fill="none" stroke="black" points="537.5,-107.5 922.5,-107.5 "/>
<text text-anchor="start" x="545.5" y="-92.3" font-family="Times,serif" font-size="14.00">+ async_run : Array(IO, Process::Waiter)</text>
<text text-anchor="start" x="545.5" y="-77.3" font-family="Times,serif" font-size="14.00">+ normalize_env : Hash{String =&gt; String}</text>
<text text-anchor="start" x="545.5" y="-62.3" font-family="Times,serif" font-size="14.00">+ run : String</text>
<text text-anchor="start" x="545.5" y="-47.3" font-family="Times,serif" font-size="14.00">+ run_cmd : Boolean</text>
<text text-anchor="start" x="545.5" y="-32.3" font-family="Times,serif" font-size="14.00">+ wait_with_output : Array(String, Process::Status)</text>
</g>
<!-- Cinnabar_Command_ArrExt -->
<g id="node13" class="node">
<title>Cinnabar_Command_ArrExt</title>
<polygon fill="none" stroke="black" points="2989.5,-39.5 2989.5,-138.5 3306.5,-138.5 3306.5,-39.5 2989.5,-39.5"/>
<text text-anchor="middle" x="3148" y="-123.3" font-family="Times,serif" font-size="14.00">module ArrExt</text>
<polyline fill="none" stroke="black" points="2989.5,-115.5 3306.5,-115.5 "/>
<text text-anchor="middle" x="3148" y="-100.3" font-family="Times,serif" font-size="14.00"> </text>
<polyline fill="none" stroke="black" points="2989.5,-92.5 3306.5,-92.5 "/>
<text text-anchor="start" x="2997.5" y="-77.3" font-family="Times,serif" font-size="14.00">+ #async_run : Array(IO, Process::Waiter)</text>
<text text-anchor="start" x="2997.5" y="-62.3" font-family="Times,serif" font-size="14.00">+ #run : String</text>
<text text-anchor="start" x="2997.5" y="-47.3" font-family="Times,serif" font-size="14.00">+ #run_cmd : Boolean</text>
</g>
<!-- Cinnabar_Command_ArrMixin -->
<g id="node14" class="node">
<title>Cinnabar_Command_ArrMixin</title>
<polygon fill="none" stroke="black" points="2834.5,-54.5 2834.5,-123.5 2971.5,-123.5 2971.5,-54.5 2834.5,-54.5"/>
<text text-anchor="middle" x="2903" y="-108.3" font-family="Times,serif" font-size="14.00">module ArrMixin</text>
<polyline fill="none" stroke="black" points="2834.5,-100.5 2971.5,-100.5 "/>
<text text-anchor="middle" x="2903" y="-85.3" font-family="Times,serif" font-size="14.00"> </text>
<polyline fill="none" stroke="black" points="2834.5,-77.5 2971.5,-77.5 "/>
<text text-anchor="start" x="2842.5" y="-62.3" font-family="Times,serif" font-size="14.00">+ included</text>
</g>
<!-- Cinnabar_Command_ArrRefin -->
<g id="node15" class="node">
<title>Cinnabar_Command_ArrRefin</title>
<polygon fill="none" stroke="black" points="2682,-54.5 2682,-123.5 2816,-123.5 2816,-54.5 2682,-54.5"/>
<text text-anchor="middle" x="2749" y="-108.3" font-family="Times,serif" font-size="14.00">module ArrRefin</text>
<polyline fill="none" stroke="black" points="2682,-100.5 2816,-100.5 "/>
<text text-anchor="middle" x="2749" y="-85.3" font-family="Times,serif" font-size="14.00"> </text>
<polyline fill="none" stroke="black" points="2682,-77.5 2816,-77.5 "/>
<text text-anchor="middle" x="2749" y="-62.3" font-family="Times,serif" font-size="14.00"> </text>
</g>
<!-- Cinnabar_Command_TaskArrExt -->
<g id="node16" class="node">
<title>Cinnabar_Command_TaskArrExt</title>
<polygon fill="none" stroke="black" points="2496,-54.5 2496,-123.5 2664,-123.5 2664,-54.5 2496,-54.5"/>
<text text-anchor="middle" x="2580" y="-108.3" font-family="Times,serif" font-size="14.00">module TaskArrExt</text>
<polyline fill="none" stroke="black" points="2496,-100.5 2664,-100.5 "/>
<text text-anchor="middle" x="2580" y="-85.3" font-family="Times,serif" font-size="14.00"> </text>
<polyline fill="none" stroke="black" points="2496,-77.5 2664,-77.5 "/>
<text text-anchor="start" x="2504" y="-62.3" font-family="Times,serif" font-size="14.00">+ #wait_with_output</text>
</g>
<!-- Cinnabar_Command_TaskArrRefin -->
<g id="node17" class="node">
<title>Cinnabar_Command_TaskArrRefin</title>
<polygon fill="none" stroke="black" points="2312,-54.5 2312,-123.5 2478,-123.5 2478,-54.5 2312,-54.5"/>
<text text-anchor="middle" x="2395" y="-108.3" font-family="Times,serif" font-size="14.00">module TaskArrRefin</text>
<polyline fill="none" stroke="black" points="2312,-100.5 2478,-100.5 "/>
<text text-anchor="middle" x="2395" y="-85.3" font-family="Times,serif" font-size="14.00"> </text>
<polyline fill="none" stroke="black" points="2312,-77.5 2478,-77.5 "/>
<text text-anchor="middle" x="2395" y="-62.3" font-family="Times,serif" font-size="14.00"> </text>
</g>
<!-- Cinnabar_Command_TaskArrMixin -->
<g id="node18" class="node">
<title>Cinnabar_Command_TaskArrMixin</title>
<polygon fill="none" stroke="black" points="2124,-54.5 2124,-123.5 2294,-123.5 2294,-54.5 2124,-54.5"/>
<text text-anchor="middle" x="2209" y="-108.3" font-family="Times,serif" font-size="14.00">module TaskArrMixin</text>
<polyline fill="none" stroke="black" points="2124,-100.5 2294,-100.5 "/>
<text text-anchor="middle" x="2209" y="-85.3" font-family="Times,serif" font-size="14.00"> </text>
<polyline fill="none" stroke="black" points="2124,-77.5 2294,-77.5 "/>
<text text-anchor="start" x="2132" y="-62.3" font-family="Times,serif" font-size="14.00">+ included</text>
</g>
<!-- Cinnabar_Downloader -->
<g id="node19" class="node">
<title>Cinnabar_Downloader</title>
<polygon fill="none" stroke="black" points="286.5,-32 286.5,-146 519.5,-146 519.5,-32 286.5,-32"/>
<text text-anchor="middle" x="403" y="-130.8" font-family="Times,serif" font-size="14.00">module Downloader</text>
<polyline fill="none" stroke="black" points="286.5,-123 519.5,-123 "/>
<text text-anchor="middle" x="403" y="-107.8" font-family="Times,serif" font-size="14.00"> </text>
<polyline fill="none" stroke="black" points="286.5,-100 519.5,-100 "/>
<text text-anchor="start" x="294.5" y="-84.8" font-family="Times,serif" font-size="14.00">+ build_headers : Hash</text>
<text text-anchor="start" x="294.5" y="-69.8" font-family="Times,serif" font-size="14.00">+ determine_filename : String</text>
<text text-anchor="start" x="294.5" y="-54.8" font-family="Times,serif" font-size="14.00">+ download : Integer</text>
<text text-anchor="start" x="294.5" y="-39.8" font-family="Times,serif" font-size="14.00">+ setup_file_path : Pathname</text>
</g>
<!-- Cinnabar_Downloader_StrExt -->
<g id="node20" class="node">
<title>Cinnabar_Downloader_StrExt</title>
<polygon fill="none" stroke="black" points="1920.5,-54.5 1920.5,-123.5 2099.5,-123.5 2099.5,-54.5 1920.5,-54.5"/>
<text text-anchor="middle" x="2010" y="-108.3" font-family="Times,serif" font-size="14.00">module StrExt</text>
<polyline fill="none" stroke="black" points="1920.5,-100.5 2099.5,-100.5 "/>
<text text-anchor="middle" x="2010" y="-85.3" font-family="Times,serif" font-size="14.00"> </text>
<polyline fill="none" stroke="black" points="1920.5,-77.5 2099.5,-77.5 "/>
<text text-anchor="start" x="1928.5" y="-62.3" font-family="Times,serif" font-size="14.00">+ #download : Integer</text>
</g>
<!-- Cinnabar_Downloader_StrMixin -->
<g id="node21" class="node">
<title>Cinnabar_Downloader_StrMixin</title>
<polygon fill="none" stroke="black" points="1765.5,-54.5 1765.5,-123.5 1902.5,-123.5 1902.5,-54.5 1765.5,-54.5"/>
<text text-anchor="middle" x="1834" y="-108.3" font-family="Times,serif" font-size="14.00">module StrMixin</text>
<polyline fill="none" stroke="black" points="1765.5,-100.5 1902.5,-100.5 "/>
<text text-anchor="middle" x="1834" y="-85.3" font-family="Times,serif" font-size="14.00"> </text>
<polyline fill="none" stroke="black" points="1765.5,-77.5 1902.5,-77.5 "/>
<text text-anchor="start" x="1773.5" y="-62.3" font-family="Times,serif" font-size="14.00">+ included</text>
</g>
<!-- Cinnabar_Downloader_StrRefin -->
<g id="node22" class="node">
<title>Cinnabar_Downloader_StrRefin</title>
<polygon fill="none" stroke="black" points="1614.5,-54.5 1614.5,-123.5 1747.5,-123.5 1747.5,-54.5 1614.5,-54.5"/>
<text text-anchor="middle" x="1681" y="-108.3" font-family="Times,serif" font-size="14.00">module StrRefin</text>
<polyline fill="none" stroke="black" points="1614.5,-100.5 1747.5,-100.5 "/>
<text text-anchor="middle" x="1681" y="-85.3" font-family="Times,serif" font-size="14.00"> </text>
<polyline fill="none" stroke="black" points="1614.5,-77.5 1747.5,-77.5 "/>
<text text-anchor="middle" x="1681" y="-62.3" font-family="Times,serif" font-size="14.00"> </text>
</g>
</g>
</svg>
