<?xml version="1.0" encoding="UTF-8" standalone="no"?>
<!DOCTYPE svg PUBLIC "-//W3C//DTD SVG 1.1//EN"
 "http://www.w3.org/Graphics/SVG/1.1/DTD/svg11.dtd">
<!-- Generated by graphviz version 2.42.4 (0)
 -->
<!-- Title: yard Pages: 1 -->
<svg width="4944pt" height="263pt"
 viewBox="0.00 0.00 4944.00 263.00" xmlns="http://www.w3.org/2000/svg" xmlns:xlink="http://www.w3.org/1999/xlink">
<g id="graph0" class="graph" transform="scale(1 1) rotate(0) translate(4 259)">
<title>yard</title>
<polygon fill="white" stroke="transparent" points="-4,4 -4,-259 4940,-259 4940,4 -4,4"/>
<g id="clust1" class="cluster">
<title>cluster_</title>
<polygon fill="none" stroke="black" points="90,-8 90,-247 4928,-247 4928,-8 90,-8"/>
</g>
<g id="clust3" class="cluster">
<title>cluster_Cinnabar</title>
<polygon fill="none" stroke="black" points="610,-16 610,-239 4920,-239 4920,-16 610,-16"/>
<text text-anchor="middle" x="2765" y="-223.8" font-family="Times,serif" font-size="14.00">Cinnabar</text>
</g>
<g id="clust4" class="cluster">
<title>cluster_Cinnabar_StrToPath</title>
<polygon fill="none" stroke="black" points="4429,-61.5 4429,-170.5 4912,-170.5 4912,-61.5 4429,-61.5"/>
<text text-anchor="middle" x="4670.5" y="-155.3" font-family="Times,serif" font-size="14.00">StrToPath</text>
</g>
<g id="clust8" class="cluster">
<title>cluster_Cinnabar_FnPipe</title>
<polygon fill="none" stroke="black" points="4047,-61.5 4047,-170.5 4421,-170.5 4421,-61.5 4047,-61.5"/>
<text text-anchor="middle" x="4234" y="-155.3" font-family="Times,serif" font-size="14.00">FnPipe</text>
</g>
<g id="clust12" class="cluster">
<title>cluster_Cinnabar_Utils</title>
<polygon fill="none" stroke="black" points="3849,-24 3849,-208 4039,-208 4039,-24 3849,-24"/>
<text text-anchor="middle" x="3944" y="-192.8" font-family="Times,serif" font-size="14.00">Utils</text>
</g>
<g id="clust15" class="cluster">
<title>cluster_Cinnabar_Command</title>
<polygon fill="none" stroke="black" points="2642,-46.5 2642,-185.5 3841,-185.5 3841,-46.5 2642,-46.5"/>
<text text-anchor="middle" x="3241.5" y="-170.3" font-family="Times,serif" font-size="14.00">Command</text>
</g>
<g id="clust22" class="cluster">
<title>cluster_Cinnabar_Downloader</title>
<polygon fill="none" stroke="black" points="2132,-61.5 2132,-170.5 2634,-170.5 2634,-61.5 2132,-61.5"/>
<text text-anchor="middle" x="2383" y="-155.3" font-family="Times,serif" font-size="14.00">Downloader</text>
</g>
<!-- Root -->
<g id="node1" class="node">
<title>Root</title>
<polygon fill="none" stroke="black" points="0,-70 0,-139 80,-139 80,-70 0,-70"/>
<text text-anchor="middle" x="40" y="-123.8" font-family="Times,serif" font-size="14.00">root root</text>
<polyline fill="none" stroke="black" points="0,-116 80,-116 "/>
<text text-anchor="middle" x="40" y="-100.8" font-family="Times,serif" font-size="14.00"> </text>
<polyline fill="none" stroke="black" points="0,-93 80,-93 "/>
<text text-anchor="middle" x="40" y="-77.8" font-family="Times,serif" font-size="14.00"> </text>
</g>
<!-- Cinnabar -->
<g id="node2" class="node">
<title>Cinnabar</title>
<polygon fill="none" stroke="black" points="376.5,-62.5 376.5,-146.5 599.5,-146.5 599.5,-62.5 376.5,-62.5"/>
<text text-anchor="middle" x="488" y="-131.3" font-family="Times,serif" font-size="14.00">module Cinnabar</text>
<polyline fill="none" stroke="black" points="376.5,-123.5 599.5,-123.5 "/>
<text text-anchor="middle" x="488" y="-108.3" font-family="Times,serif" font-size="14.00"> </text>
<polyline fill="none" stroke="black" points="376.5,-100.5 599.5,-100.5 "/>
<text text-anchor="start" x="384.5" y="-85.3" font-family="Times,serif" font-size="14.00">+ new_gem_path_proc : Proc</text>
<text text-anchor="start" x="384.5" y="-70.3" font-family="Times,serif" font-size="14.00">+ to_path_proc : Proc</text>
</g>
<!-- Cinnabar_GemPath -->
<g id="node3" class="node">
<title>Cinnabar_GemPath</title>
<polygon fill="none" stroke="black" points="98,-32.5 98,-176.5 358,-176.5 358,-32.5 98,-32.5"/>
<text text-anchor="middle" x="228" y="-161.3" font-family="Times,serif" font-size="14.00">class GemPath</text>
<polyline fill="none" stroke="black" points="98,-153.5 358,-153.5 "/>
<text text-anchor="start" x="106" y="-138.3" font-family="Times,serif" font-size="14.00">+ #cache_file [RW]</text>
<text text-anchor="start" x="106" y="-123.3" font-family="Times,serif" font-size="14.00">+ #cache_hash [R]</text>
<text text-anchor="start" x="106" y="-108.3" font-family="Times,serif" font-size="14.00">+ #gems [RW]</text>
<text text-anchor="start" x="106" y="-93.3" font-family="Times,serif" font-size="14.00">+ #install_gem [RW]</text>
<polyline fill="none" stroke="black" points="98,-85.5 358,-85.5 "/>
<text text-anchor="start" x="106" y="-70.3" font-family="Times,serif" font-size="14.00">+ #append_load_path! : void</text>
<text text-anchor="start" x="106" y="-55.3" font-family="Times,serif" font-size="14.00">+ #initialize : Cinnabar::GemPath</text>
<text text-anchor="start" x="106" y="-40.3" font-family="Times,serif" font-size="14.00">+ #update_cache_file : void</text>
</g>
<!-- Cinnabar_StrToPath -->
<g id="node4" class="node">
<title>Cinnabar_StrToPath</title>
<polygon fill="none" stroke="black" points="1977.5,-70 1977.5,-139 2122.5,-139 2122.5,-70 1977.5,-70"/>
<text text-anchor="middle" x="2050" y="-123.8" font-family="Times,serif" font-size="14.00">module StrToPath</text>
<polyline fill="none" stroke="black" points="1977.5,-116 2122.5,-116 "/>
<text text-anchor="middle" x="2050" y="-100.8" font-family="Times,serif" font-size="14.00"> </text>
<polyline fill="none" stroke="black" points="1977.5,-93 2122.5,-93 "/>
<text text-anchor="middle" x="2050" y="-77.8" font-family="Times,serif" font-size="14.00"> </text>
</g>
<!-- Cinnabar_StrToPath_Ext -->
<g id="node5" class="node">
<title>Cinnabar_StrToPath_Ext</title>
<polygon fill="none" stroke="black" points="4720.5,-70 4720.5,-139 4903.5,-139 4903.5,-70 4720.5,-70"/>
<text text-anchor="middle" x="4812" y="-123.8" font-family="Times,serif" font-size="14.00">module Ext</text>
<polyline fill="none" stroke="black" points="4720.5,-116 4903.5,-116 "/>
<text text-anchor="middle" x="4812" y="-100.8" font-family="Times,serif" font-size="14.00"> </text>
<polyline fill="none" stroke="black" points="4720.5,-93 4903.5,-93 "/>
<text text-anchor="start" x="4728.5" y="-77.8" font-family="Times,serif" font-size="14.00">+ #to_path : Pathname</text>
</g>
<!-- Cinnabar_StrToPath_Mixin -->
<g id="node6" class="node">
<title>Cinnabar_StrToPath_Mixin</title>
<polygon fill="none" stroke="black" points="4565.5,-70 4565.5,-139 4702.5,-139 4702.5,-70 4565.5,-70"/>
<text text-anchor="middle" x="4634" y="-123.8" font-family="Times,serif" font-size="14.00">module Mixin</text>
<polyline fill="none" stroke="black" points="4565.5,-116 4702.5,-116 "/>
<text text-anchor="middle" x="4634" y="-100.8" font-family="Times,serif" font-size="14.00"> </text>
<polyline fill="none" stroke="black" points="4565.5,-93 4702.5,-93 "/>
<text text-anchor="start" x="4573.5" y="-77.8" font-family="Times,serif" font-size="14.00">+ included : void</text>
</g>
<!-- Cinnabar_StrToPath_Refin -->
<g id="node7" class="node">
<title>Cinnabar_StrToPath_Refin</title>
<polygon fill="none" stroke="black" points="4437,-70 4437,-139 4547,-139 4547,-70 4437,-70"/>
<text text-anchor="middle" x="4492" y="-123.8" font-family="Times,serif" font-size="14.00">module Refin</text>
<polyline fill="none" stroke="black" points="4437,-116 4547,-116 "/>
<text text-anchor="middle" x="4492" y="-100.8" font-family="Times,serif" font-size="14.00"> </text>
<polyline fill="none" stroke="black" points="4437,-93 4547,-93 "/>
<text text-anchor="middle" x="4492" y="-77.8" font-family="Times,serif" font-size="14.00"> </text>
</g>
<!-- Cinnabar_FnPipe -->
<g id="node8" class="node">
<title>Cinnabar_FnPipe</title>
<polygon fill="none" stroke="black" points="1835,-70 1835,-139 1959,-139 1959,-70 1835,-70"/>
<text text-anchor="middle" x="1897" y="-123.8" font-family="Times,serif" font-size="14.00">module FnPipe</text>
<polyline fill="none" stroke="black" points="1835,-116 1959,-116 "/>
<text text-anchor="middle" x="1897" y="-100.8" font-family="Times,serif" font-size="14.00"> </text>
<polyline fill="none" stroke="black" points="1835,-93 1959,-93 "/>
<text text-anchor="start" x="1843" y="-77.8" font-family="Times,serif" font-size="14.00">+ ▷</text>
</g>
<!-- Cinnabar_FnPipe_Ext -->
<g id="node9" class="node">
<title>Cinnabar_FnPipe_Ext</title>
<polygon fill="none" stroke="black" points="4315,-70 4315,-139 4413,-139 4413,-70 4315,-70"/>
<text text-anchor="middle" x="4364" y="-123.8" font-family="Times,serif" font-size="14.00">module Ext</text>
<polyline fill="none" stroke="black" points="4315,-116 4413,-116 "/>
<text text-anchor="middle" x="4364" y="-100.8" font-family="Times,serif" font-size="14.00"> </text>
<polyline fill="none" stroke="black" points="4315,-93 4413,-93 "/>
<text text-anchor="start" x="4323" y="-77.8" font-family="Times,serif" font-size="14.00">+ #▷</text>
</g>
<!-- Cinnabar_FnPipe_Mixin -->
<g id="node10" class="node">
<title>Cinnabar_FnPipe_Mixin</title>
<polygon fill="none" stroke="black" points="4183,-70 4183,-139 4297,-139 4297,-70 4183,-70"/>
<text text-anchor="middle" x="4240" y="-123.8" font-family="Times,serif" font-size="14.00">module Mixin</text>
<polyline fill="none" stroke="black" points="4183,-116 4297,-116 "/>
<text text-anchor="middle" x="4240" y="-100.8" font-family="Times,serif" font-size="14.00"> </text>
<polyline fill="none" stroke="black" points="4183,-93 4297,-93 "/>
<text text-anchor="start" x="4191" y="-77.8" font-family="Times,serif" font-size="14.00">+ included</text>
</g>
<!-- Cinnabar_FnPipe_Refin -->
<g id="node11" class="node">
<title>Cinnabar_FnPipe_Refin</title>
<polygon fill="none" stroke="black" points="4055,-70 4055,-139 4165,-139 4165,-70 4055,-70"/>
<text text-anchor="middle" x="4110" y="-123.8" font-family="Times,serif" font-size="14.00">module Refin</text>
<polyline fill="none" stroke="black" points="4055,-116 4165,-116 "/>
<text text-anchor="middle" x="4110" y="-100.8" font-family="Times,serif" font-size="14.00"> </text>
<polyline fill="none" stroke="black" points="4055,-93 4165,-93 "/>
<text text-anchor="middle" x="4110" y="-77.8" font-family="Times,serif" font-size="14.00"> </text>
</g>
<!-- Cinnabar_Utils -->
<g id="node12" class="node">
<title>Cinnabar_Utils</title>
<polygon fill="none" stroke="black" points="1709,-70 1709,-139 1817,-139 1817,-70 1709,-70"/>
<text text-anchor="middle" x="1763" y="-123.8" font-family="Times,serif" font-size="14.00">module Utils</text>
<polyline fill="none" stroke="black" points="1709,-116 1817,-116 "/>
<text text-anchor="middle" x="1763" y="-100.8" font-family="Times,serif" font-size="14.00"> </text>
<polyline fill="none" stroke="black" points="1709,-93 1817,-93 "/>
<text text-anchor="start" x="1717" y="-77.8" font-family="Times,serif" font-size="14.00">+ gems!</text>
</g>
<!-- Cinnabar_Utils_OS -->
<g id="node13" class="node">
<title>Cinnabar_Utils_OS</title>
<polygon fill="none" stroke="black" points="3857.5,-32.5 3857.5,-176.5 4030.5,-176.5 4030.5,-32.5 3857.5,-32.5"/>
<text text-anchor="middle" x="3944" y="-161.3" font-family="Times,serif" font-size="14.00">module OS</text>
<polyline fill="none" stroke="black" points="3857.5,-153.5 4030.5,-153.5 "/>
<text text-anchor="middle" x="3944" y="-138.3" font-family="Times,serif" font-size="14.00"> </text>
<polyline fill="none" stroke="black" points="3857.5,-130.5 4030.5,-130.5 "/>
<text text-anchor="start" x="3865.5" y="-115.3" font-family="Times,serif" font-size="14.00">+ linux? : Boolean</text>
<text text-anchor="start" x="3865.5" y="-100.3" font-family="Times,serif" font-size="14.00">+ macOS? : Boolean</text>
<text text-anchor="start" x="3865.5" y="-85.3" font-family="Times,serif" font-size="14.00">+ windows? : Boolean</text>
<text text-anchor="start" x="3865.5" y="-70.3" font-family="Times,serif" font-size="14.00">+ wsl? : Boolean</text>
<text text-anchor="start" x="3865.5" y="-55.3" font-family="Times,serif" font-size="14.00">+ wsl_1? : Boolean</text>
<text text-anchor="start" x="3865.5" y="-40.3" font-family="Times,serif" font-size="14.00">+ wsl_2? : Boolean</text>
</g>
<!-- Cinnabar_GemPathCore -->
<g id="node14" class="node">
<title>Cinnabar_GemPathCore</title>
<polygon fill="none" stroke="black" points="1271.5,-47.5 1271.5,-161.5 1690.5,-161.5 1690.5,-47.5 1271.5,-47.5"/>
<text text-anchor="middle" x="1481" y="-146.3" font-family="Times,serif" font-size="14.00">module GemPathCore</text>
<polyline fill="none" stroke="black" points="1271.5,-138.5 1690.5,-138.5 "/>
<text text-anchor="middle" x="1481" y="-123.3" font-family="Times,serif" font-size="14.00"> </text>
<polyline fill="none" stroke="black" points="1271.5,-115.5 1690.5,-115.5 "/>
<text text-anchor="start" x="1279.5" y="-100.3" font-family="Times,serif" font-size="14.00">+ ensure_rubygems! : void</text>
<text text-anchor="start" x="1279.5" y="-85.3" font-family="Times,serif" font-size="14.00">+ find_lib_paths : Array&lt;String&gt;</text>
<text text-anchor="start" x="1279.5" y="-70.3" font-family="Times,serif" font-size="14.00">+ find_or_install_lib_paths : Array&lt;String&gt;</text>
<text text-anchor="start" x="1279.5" y="-55.3" font-family="Times,serif" font-size="14.00">+ init_gem_dir_hash : Hash{(String)=&gt;Array&lt;String&gt;}</text>
</g>
<!-- Cinnabar_Command -->
<g id="node15" class="node">
<title>Cinnabar_Command</title>
<polygon fill="none" stroke="black" points="868.5,-40 868.5,-169 1253.5,-169 1253.5,-40 868.5,-40"/>
<text text-anchor="middle" x="1061" y="-153.8" font-family="Times,serif" font-size="14.00">module Command</text>
<polyline fill="none" stroke="black" points="868.5,-146 1253.5,-146 "/>
<text text-anchor="middle" x="1061" y="-130.8" font-family="Times,serif" font-size="14.00"> </text>
<polyline fill="none" stroke="black" points="868.5,-123 1253.5,-123 "/>
<text text-anchor="start" x="876.5" y="-107.8" font-family="Times,serif" font-size="14.00">+ async_run : Array(IO, Process::Waiter)</text>
<text text-anchor="start" x="876.5" y="-92.8" font-family="Times,serif" font-size="14.00">+ normalize_env : Hash{String =&gt; String}</text>
<text text-anchor="start" x="876.5" y="-77.8" font-family="Times,serif" font-size="14.00">+ run : String</text>
<text text-anchor="start" x="876.5" y="-62.8" font-family="Times,serif" font-size="14.00">+ run_cmd : Boolean</text>
<text text-anchor="start" x="876.5" y="-47.8" font-family="Times,serif" font-size="14.00">+ wait_with_output : Array(String, Process::Status)</text>
</g>
<!-- Cinnabar_Command_ArrExt -->
<g id="node16" class="node">
<title>Cinnabar_Command_ArrExt</title>
<polygon fill="none" stroke="black" points="3515.5,-55 3515.5,-154 3832.5,-154 3832.5,-55 3515.5,-55"/>
<text text-anchor="middle" x="3674" y="-138.8" font-family="Times,serif" font-size="14.00">module ArrExt</text>
<polyline fill="none" stroke="black" points="3515.5,-131 3832.5,-131 "/>
<text text-anchor="middle" x="3674" y="-115.8" font-family="Times,serif" font-size="14.00"> </text>
<polyline fill="none" stroke="black" points="3515.5,-108 3832.5,-108 "/>
<text text-anchor="start" x="3523.5" y="-92.8" font-family="Times,serif" font-size="14.00">+ #async_run : Array(IO, Process::Waiter)</text>
<text text-anchor="start" x="3523.5" y="-77.8" font-family="Times,serif" font-size="14.00">+ #run : String</text>
<text text-anchor="start" x="3523.5" y="-62.8" font-family="Times,serif" font-size="14.00">+ #run_cmd : Boolean</text>
</g>
<!-- Cinnabar_Command_ArrMixin -->
<g id="node17" class="node">
<title>Cinnabar_Command_ArrMixin</title>
<polygon fill="none" stroke="black" points="3360.5,-70 3360.5,-139 3497.5,-139 3497.5,-70 3360.5,-70"/>
<text text-anchor="middle" x="3429" y="-123.8" font-family="Times,serif" font-size="14.00">module ArrMixin</text>
<polyline fill="none" stroke="black" points="3360.5,-116 3497.5,-116 "/>
<text text-anchor="middle" x="3429" y="-100.8" font-family="Times,serif" font-size="14.00"> </text>
<polyline fill="none" stroke="black" points="3360.5,-93 3497.5,-93 "/>
<text text-anchor="start" x="3368.5" y="-77.8" font-family="Times,serif" font-size="14.00">+ included</text>
</g>
<!-- Cinnabar_Command_ArrRefin -->
<g id="node18" class="node">
<title>Cinnabar_Command_ArrRefin</title>
<polygon fill="none" stroke="black" points="3208,-70 3208,-139 3342,-139 3342,-70 3208,-70"/>
<text text-anchor="middle" x="3275" y="-123.8" font-family="Times,serif" font-size="14.00">module ArrRefin</text>
<polyline fill="none" stroke="black" points="3208,-116 3342,-116 "/>
<text text-anchor="middle" x="3275" y="-100.8" font-family="Times,serif" font-size="14.00"> </text>
<polyline fill="none" stroke="black" points="3208,-93 3342,-93 "/>
<text text-anchor="middle" x="3275" y="-77.8" font-family="Times,serif" font-size="14.00"> </text>
</g>
<!-- Cinnabar_Command_TaskArrExt -->
<g id="node19" class="node">
<title>Cinnabar_Command_TaskArrExt</title>
<polygon fill="none" stroke="black" points="3022,-70 3022,-139 3190,-139 3190,-70 3022,-70"/>
<text text-anchor="middle" x="3106" y="-123.8" font-family="Times,serif" font-size="14.00">module TaskArrExt</text>
<polyline fill="none" stroke="black" points="3022,-116 3190,-116 "/>
<text text-anchor="middle" x="3106" y="-100.8" font-family="Times,serif" font-size="14.00"> </text>
<polyline fill="none" stroke="black" points="3022,-93 3190,-93 "/>
<text text-anchor="start" x="3030" y="-77.8" font-family="Times,serif" font-size="14.00">+ #wait_with_output</text>
</g>
<!-- Cinnabar_Command_TaskArrRefin -->
<g id="node20" class="node">
<title>Cinnabar_Command_TaskArrRefin</title>
<polygon fill="none" stroke="black" points="2838,-70 2838,-139 3004,-139 3004,-70 2838,-70"/>
<text text-anchor="middle" x="2921" y="-123.8" font-family="Times,serif" font-size="14.00">module TaskArrRefin</text>
<polyline fill="none" stroke="black" points="2838,-116 3004,-116 "/>
<text text-anchor="middle" x="2921" y="-100.8" font-family="Times,serif" font-size="14.00"> </text>
<polyline fill="none" stroke="black" points="2838,-93 3004,-93 "/>
<text text-anchor="middle" x="2921" y="-77.8" font-family="Times,serif" font-size="14.00"> </text>
</g>
<!-- Cinnabar_Command_TaskArrMixin -->
<g id="node21" class="node">
<title>Cinnabar_Command_TaskArrMixin</title>
<polygon fill="none" stroke="black" points="2650,-70 2650,-139 2820,-139 2820,-70 2650,-70"/>
<text text-anchor="middle" x="2735" y="-123.8" font-family="Times,serif" font-size="14.00">module TaskArrMixin</text>
<polyline fill="none" stroke="black" points="2650,-116 2820,-116 "/>
<text text-anchor="middle" x="2735" y="-100.8" font-family="Times,serif" font-size="14.00"> </text>
<polyline fill="none" stroke="black" points="2650,-93 2820,-93 "/>
<text text-anchor="start" x="2658" y="-77.8" font-family="Times,serif" font-size="14.00">+ included</text>
</g>
<!-- Cinnabar_Downloader -->
<g id="node22" class="node">
<title>Cinnabar_Downloader</title>
<polygon fill="none" stroke="black" points="617.5,-47.5 617.5,-161.5 850.5,-161.5 850.5,-47.5 617.5,-47.5"/>
<text text-anchor="middle" x="734" y="-146.3" font-family="Times,serif" font-size="14.00">module Downloader</text>
<polyline fill="none" stroke="black" points="617.5,-138.5 850.5,-138.5 "/>
<text text-anchor="middle" x="734" y="-123.3" font-family="Times,serif" font-size="14.00"> </text>
<polyline fill="none" stroke="black" points="617.5,-115.5 850.5,-115.5 "/>
<text text-anchor="start" x="625.5" y="-100.3" font-family="Times,serif" font-size="14.00">+ build_headers : Hash</text>
<text text-anchor="start" x="625.5" y="-85.3" font-family="Times,serif" font-size="14.00">+ determine_filename : String</text>
<text text-anchor="start" x="625.5" y="-70.3" font-family="Times,serif" font-size="14.00">+ download : Integer</text>
<text text-anchor="start" x="625.5" y="-55.3" font-family="Times,serif" font-size="14.00">+ setup_file_path : Pathname</text>
</g>
<!-- Cinnabar_Downloader_StrExt -->
<g id="node23" class="node">
<title>Cinnabar_Downloader_StrExt</title>
<polygon fill="none" stroke="black" points="2446.5,-70 2446.5,-139 2625.5,-139 2625.5,-70 2446.5,-70"/>
<text text-anchor="middle" x="2536" y="-123.8" font-family="Times,serif" font-size="14.00">module StrExt</text>
<polyline fill="none" stroke="black" points="2446.5,-116 2625.5,-116 "/>
<text text-anchor="middle" x="2536" y="-100.8" font-family="Times,serif" font-size="14.00"> </text>
<polyline fill="none" stroke="black" points="2446.5,-93 2625.5,-93 "/>
<text text-anchor="start" x="2454.5" y="-77.8" font-family="Times,serif" font-size="14.00">+ #download : Integer</text>
</g>
<!-- Cinnabar_Downloader_StrMixin -->
<g id="node24" class="node">
<title>Cinnabar_Downloader_StrMixin</title>
<polygon fill="none" stroke="black" points="2291.5,-70 2291.5,-139 2428.5,-139 2428.5,-70 2291.5,-70"/>
<text text-anchor="middle" x="2360" y="-123.8" font-family="Times,serif" font-size="14.00">module StrMixin</text>
<polyline fill="none" stroke="black" points="2291.5,-116 2428.5,-116 "/>
<text text-anchor="middle" x="2360" y="-100.8" font-family="Times,serif" font-size="14.00"> </text>
<polyline fill="none" stroke="black" points="2291.5,-93 2428.5,-93 "/>
<text text-anchor="start" x="2299.5" y="-77.8" font-family="Times,serif" font-size="14.00">+ included</text>
</g>
<!-- Cinnabar_Downloader_StrRefin -->
<g id="node25" class="node">
<title>Cinnabar_Downloader_StrRefin</title>
<polygon fill="none" stroke="black" points="2140.5,-70 2140.5,-139 2273.5,-139 2273.5,-70 2140.5,-70"/>
<text text-anchor="middle" x="2207" y="-123.8" font-family="Times,serif" font-size="14.00">module StrRefin</text>
<polyline fill="none" stroke="black" points="2140.5,-116 2273.5,-116 "/>
<text text-anchor="middle" x="2207" y="-100.8" font-family="Times,serif" font-size="14.00"> </text>
<polyline fill="none" stroke="black" points="2140.5,-93 2273.5,-93 "/>
<text text-anchor="middle" x="2207" y="-77.8" font-family="Times,serif" font-size="14.00"> </text>
</g>
</g>
</svg>
