<?xml version="1.0" encoding="UTF-8" standalone="no"?>
<!DOCTYPE svg PUBLIC "-//W3C//DTD SVG 1.1//EN"
 "http://www.w3.org/Graphics/SVG/1.1/DTD/svg11.dtd">
<!-- Generated by graphviz version 2.42.4 (0)
 -->
<!-- Title: yard Pages: 1 -->
<svg width="4914pt" height="263pt"
 viewBox="0.00 0.00 4914.00 263.00" xmlns="http://www.w3.org/2000/svg" xmlns:xlink="http://www.w3.org/1999/xlink">
<g id="graph0" class="graph" transform="scale(1 1) rotate(0) translate(4 259)">
<title>yard</title>
<polygon fill="white" stroke="transparent" points="-4,4 -4,-259 4910,-259 4910,4 -4,4"/>
<g id="clust1" class="cluster">
<title>cluster_</title>
<polygon fill="none" stroke="black" points="90,-8 90,-247 4898,-247 4898,-8 90,-8"/>
</g>
<g id="clust3" class="cluster">
<title>cluster_Cinnabar</title>
<polygon fill="none" stroke="black" points="580,-16 580,-239 4890,-239 4890,-16 580,-16"/>
<text text-anchor="middle" x="2735" y="-223.8" font-family="Times,serif" font-size="14.00">Cinnabar</text>
</g>
<g id="clust4" class="cluster">
<title>cluster_Cinnabar_StrToPath</title>
<polygon fill="none" stroke="black" points="4399,-61.5 4399,-170.5 4882,-170.5 4882,-61.5 4399,-61.5"/>
<text text-anchor="middle" x="4640.5" y="-155.3" font-family="Times,serif" font-size="14.00">StrToPath</text>
</g>
<g id="clust8" class="cluster">
<title>cluster_Cinnabar_FnPipe</title>
<polygon fill="none" stroke="black" points="4017,-61.5 4017,-170.5 4391,-170.5 4391,-61.5 4017,-61.5"/>
<text text-anchor="middle" x="4204" y="-155.3" font-family="Times,serif" font-size="14.00">FnPipe</text>
</g>
<g id="clust12" class="cluster">
<title>cluster_Cinnabar_Utils</title>
<polygon fill="none" stroke="black" points="3819,-24 3819,-208 4009,-208 4009,-24 3819,-24"/>
<text text-anchor="middle" x="3914" y="-192.8" font-family="Times,serif" font-size="14.00">Utils</text>
</g>
<g id="clust15" class="cluster">
<title>cluster_Cinnabar_Command</title>
<polygon fill="none" stroke="black" points="2612,-46.5 2612,-185.5 3811,-185.5 3811,-46.5 2612,-46.5"/>
<text text-anchor="middle" x="3211.5" y="-170.3" font-family="Times,serif" font-size="14.00">Command</text>
</g>
<g id="clust22" class="cluster">
<title>cluster_Cinnabar_Downloader</title>
<polygon fill="none" stroke="black" points="2102,-61.5 2102,-170.5 2604,-170.5 2604,-61.5 2102,-61.5"/>
<text text-anchor="middle" x="2353" y="-155.3" font-family="Times,serif" font-size="14.00">Downloader</text>
</g>
<!-- Root -->
<g id="node1" class="node">
<title>Root</title>
<polygon fill="none" stroke="black" points="0,-70 0,-139 80,-139 80,-70 0,-70"/>
<text text-anchor="middle" x="40" y="-123.8" font-family="Times,serif" font-size="14.00">root root</text>
<polyline fill="none" stroke="black" points="0,-116 80,-116 "/>
<text text-anchor="middle" x="40" y="-100.8" font-family="Times,serif" font-size="14.00"> </text>
<polyline fill="none" stroke="black" points="0,-93 80,-93 "/>
<text text-anchor="middle" x="40" y="-77.8" font-family="Times,serif" font-size="14.00"> </text>
</g>
<!-- Cinnabar -->
<g id="node2" class="node">
<title>Cinnabar</title>
<polygon fill="none" stroke="black" points="376,-62.5 376,-146.5 570,-146.5 570,-62.5 376,-62.5"/>
<text text-anchor="middle" x="473" y="-131.3" font-family="Times,serif" font-size="14.00">module Cinnabar</text>
<polyline fill="none" stroke="black" points="376,-123.5 570,-123.5 "/>
<text text-anchor="middle" x="473" y="-108.3" font-family="Times,serif" font-size="14.00"> </text>
<polyline fill="none" stroke="black" points="376,-100.5 570,-100.5 "/>
<text text-anchor="start" x="384" y="-85.3" font-family="Times,serif" font-size="14.00">+ gem_paths_proc : Proc</text>
<text text-anchor="start" x="384" y="-70.3" font-family="Times,serif" font-size="14.00">+ to_path_proc : Proc</text>
</g>
<!-- Cinnabar_GemPath -->
<g id="node3" class="node">
<title>Cinnabar_GemPath</title>
<polygon fill="none" stroke="black" points="98,-32.5 98,-176.5 358,-176.5 358,-32.5 98,-32.5"/>
<text text-anchor="middle" x="228" y="-161.3" font-family="Times,serif" font-size="14.00">class GemPath</text>
<polyline fill="none" stroke="black" points="98,-153.5 358,-153.5 "/>
<text text-anchor="start" x="106" y="-138.3" font-family="Times,serif" font-size="14.00">+ #cache_file [RW]</text>
<text text-anchor="start" x="106" y="-123.3" font-family="Times,serif" font-size="14.00">+ #cache_hash [R]</text>
<text text-anchor="start" x="106" y="-108.3" font-family="Times,serif" font-size="14.00">+ #gems [RW]</text>
<text text-anchor="start" x="106" y="-93.3" font-family="Times,serif" font-size="14.00">+ #install_gem [RW]</text>
<polyline fill="none" stroke="black" points="98,-85.5 358,-85.5 "/>
<text text-anchor="start" x="106" y="-70.3" font-family="Times,serif" font-size="14.00">+ #append_load_path! : void</text>
<text text-anchor="start" x="106" y="-55.3" font-family="Times,serif" font-size="14.00">+ #initialize : Cinnabar::GemPath</text>
<text text-anchor="start" x="106" y="-40.3" font-family="Times,serif" font-size="14.00">+ #update_cache_file : void</text>
</g>
<!-- Cinnabar_StrToPath -->
<g id="node4" class="node">
<title>Cinnabar_StrToPath</title>
<polygon fill="none" stroke="black" points="1947.5,-70 1947.5,-139 2092.5,-139 2092.5,-70 1947.5,-70"/>
<text text-anchor="middle" x="2020" y="-123.8" font-family="Times,serif" font-size="14.00">module StrToPath</text>
<polyline fill="none" stroke="black" points="1947.5,-116 2092.5,-116 "/>
<text text-anchor="middle" x="2020" y="-100.8" font-family="Times,serif" font-size="14.00"> </text>
<polyline fill="none" stroke="black" points="1947.5,-93 2092.5,-93 "/>
<text text-anchor="middle" x="2020" y="-77.8" font-family="Times,serif" font-size="14.00"> </text>
</g>
<!-- Cinnabar_StrToPath_Ext -->
<g id="node5" class="node">
<title>Cinnabar_StrToPath_Ext</title>
<polygon fill="none" stroke="black" points="4690.5,-70 4690.5,-139 4873.5,-139 4873.5,-70 4690.5,-70"/>
<text text-anchor="middle" x="4782" y="-123.8" font-family="Times,serif" font-size="14.00">module Ext</text>
<polyline fill="none" stroke="black" points="4690.5,-116 4873.5,-116 "/>
<text text-anchor="middle" x="4782" y="-100.8" font-family="Times,serif" font-size="14.00"> </text>
<polyline fill="none" stroke="black" points="4690.5,-93 4873.5,-93 "/>
<text text-anchor="start" x="4698.5" y="-77.8" font-family="Times,serif" font-size="14.00">+ #to_path : Pathname</text>
</g>
<!-- Cinnabar_StrToPath_Mixin -->
<g id="node6" class="node">
<title>Cinnabar_StrToPath_Mixin</title>
<polygon fill="none" stroke="black" points="4535.5,-70 4535.5,-139 4672.5,-139 4672.5,-70 4535.5,-70"/>
<text text-anchor="middle" x="4604" y="-123.8" font-family="Times,serif" font-size="14.00">module Mixin</text>
<polyline fill="none" stroke="black" points="4535.5,-116 4672.5,-116 "/>
<text text-anchor="middle" x="4604" y="-100.8" font-family="Times,serif" font-size="14.00"> </text>
<polyline fill="none" stroke="black" points="4535.5,-93 4672.5,-93 "/>
<text text-anchor="start" x="4543.5" y="-77.8" font-family="Times,serif" font-size="14.00">+ included : void</text>
</g>
<!-- Cinnabar_StrToPath_Refin -->
<g id="node7" class="node">
<title>Cinnabar_StrToPath_Refin</title>
<polygon fill="none" stroke="black" points="4407,-70 4407,-139 4517,-139 4517,-70 4407,-70"/>
<text text-anchor="middle" x="4462" y="-123.8" font-family="Times,serif" font-size="14.00">module Refin</text>
<polyline fill="none" stroke="black" points="4407,-116 4517,-116 "/>
<text text-anchor="middle" x="4462" y="-100.8" font-family="Times,serif" font-size="14.00"> </text>
<polyline fill="none" stroke="black" points="4407,-93 4517,-93 "/>
<text text-anchor="middle" x="4462" y="-77.8" font-family="Times,serif" font-size="14.00"> </text>
</g>
<!-- Cinnabar_FnPipe -->
<g id="node8" class="node">
<title>Cinnabar_FnPipe</title>
<polygon fill="none" stroke="black" points="1805,-70 1805,-139 1929,-139 1929,-70 1805,-70"/>
<text text-anchor="middle" x="1867" y="-123.8" font-family="Times,serif" font-size="14.00">module FnPipe</text>
<polyline fill="none" stroke="black" points="1805,-116 1929,-116 "/>
<text text-anchor="middle" x="1867" y="-100.8" font-family="Times,serif" font-size="14.00"> </text>
<polyline fill="none" stroke="black" points="1805,-93 1929,-93 "/>
<text text-anchor="start" x="1813" y="-77.8" font-family="Times,serif" font-size="14.00">+ ▷</text>
</g>
<!-- Cinnabar_FnPipe_Ext -->
<g id="node9" class="node">
<title>Cinnabar_FnPipe_Ext</title>
<polygon fill="none" stroke="black" points="4285,-70 4285,-139 4383,-139 4383,-70 4285,-70"/>
<text text-anchor="middle" x="4334" y="-123.8" font-family="Times,serif" font-size="14.00">module Ext</text>
<polyline fill="none" stroke="black" points="4285,-116 4383,-116 "/>
<text text-anchor="middle" x="4334" y="-100.8" font-family="Times,serif" font-size="14.00"> </text>
<polyline fill="none" stroke="black" points="4285,-93 4383,-93 "/>
<text text-anchor="start" x="4293" y="-77.8" font-family="Times,serif" font-size="14.00">+ #▷</text>
</g>
<!-- Cinnabar_FnPipe_Mixin -->
<g id="node10" class="node">
<title>Cinnabar_FnPipe_Mixin</title>
<polygon fill="none" stroke="black" points="4153,-70 4153,-139 4267,-139 4267,-70 4153,-70"/>
<text text-anchor="middle" x="4210" y="-123.8" font-family="Times,serif" font-size="14.00">module Mixin</text>
<polyline fill="none" stroke="black" points="4153,-116 4267,-116 "/>
<text text-anchor="middle" x="4210" y="-100.8" font-family="Times,serif" font-size="14.00"> </text>
<polyline fill="none" stroke="black" points="4153,-93 4267,-93 "/>
<text text-anchor="start" x="4161" y="-77.8" font-family="Times,serif" font-size="14.00">+ included</text>
</g>
<!-- Cinnabar_FnPipe_Refin -->
<g id="node11" class="node">
<title>Cinnabar_FnPipe_Refin</title>
<polygon fill="none" stroke="black" points="4025,-70 4025,-139 4135,-139 4135,-70 4025,-70"/>
<text text-anchor="middle" x="4080" y="-123.8" font-family="Times,serif" font-size="14.00">module Refin</text>
<polyline fill="none" stroke="black" points="4025,-116 4135,-116 "/>
<text text-anchor="middle" x="4080" y="-100.8" font-family="Times,serif" font-size="14.00"> </text>
<polyline fill="none" stroke="black" points="4025,-93 4135,-93 "/>
<text text-anchor="middle" x="4080" y="-77.8" font-family="Times,serif" font-size="14.00"> </text>
</g>
<!-- Cinnabar_Utils -->
<g id="node12" class="node">
<title>Cinnabar_Utils</title>
<polygon fill="none" stroke="black" points="1679,-70 1679,-139 1787,-139 1787,-70 1679,-70"/>
<text text-anchor="middle" x="1733" y="-123.8" font-family="Times,serif" font-size="14.00">module Utils</text>
<polyline fill="none" stroke="black" points="1679,-116 1787,-116 "/>
<text text-anchor="middle" x="1733" y="-100.8" font-family="Times,serif" font-size="14.00"> </text>
<polyline fill="none" stroke="black" points="1679,-93 1787,-93 "/>
<text text-anchor="start" x="1687" y="-77.8" font-family="Times,serif" font-size="14.00">+ gems!</text>
</g>
<!-- Cinnabar_Utils_OS -->
<g id="node13" class="node">
<title>Cinnabar_Utils_OS</title>
<polygon fill="none" stroke="black" points="3827.5,-32.5 3827.5,-176.5 4000.5,-176.5 4000.5,-32.5 3827.5,-32.5"/>
<text text-anchor="middle" x="3914" y="-161.3" font-family="Times,serif" font-size="14.00">module OS</text>
<polyline fill="none" stroke="black" points="3827.5,-153.5 4000.5,-153.5 "/>
<text text-anchor="middle" x="3914" y="-138.3" font-family="Times,serif" font-size="14.00"> </text>
<polyline fill="none" stroke="black" points="3827.5,-130.5 4000.5,-130.5 "/>
<text text-anchor="start" x="3835.5" y="-115.3" font-family="Times,serif" font-size="14.00">+ linux? : Boolean</text>
<text text-anchor="start" x="3835.5" y="-100.3" font-family="Times,serif" font-size="14.00">+ macOS? : Boolean</text>
<text text-anchor="start" x="3835.5" y="-85.3" font-family="Times,serif" font-size="14.00">+ windows? : Boolean</text>
<text text-anchor="start" x="3835.5" y="-70.3" font-family="Times,serif" font-size="14.00">+ wsl? : Boolean</text>
<text text-anchor="start" x="3835.5" y="-55.3" font-family="Times,serif" font-size="14.00">+ wsl_1? : Boolean</text>
<text text-anchor="start" x="3835.5" y="-40.3" font-family="Times,serif" font-size="14.00">+ wsl_2? : Boolean</text>
</g>
<!-- Cinnabar_GemPathCore -->
<g id="node14" class="node">
<title>Cinnabar_GemPathCore</title>
<polygon fill="none" stroke="black" points="1241.5,-47.5 1241.5,-161.5 1660.5,-161.5 1660.5,-47.5 1241.5,-47.5"/>
<text text-anchor="middle" x="1451" y="-146.3" font-family="Times,serif" font-size="14.00">module GemPathCore</text>
<polyline fill="none" stroke="black" points="1241.5,-138.5 1660.5,-138.5 "/>
<text text-anchor="middle" x="1451" y="-123.3" font-family="Times,serif" font-size="14.00"> </text>
<polyline fill="none" stroke="black" points="1241.5,-115.5 1660.5,-115.5 "/>
<text text-anchor="start" x="1249.5" y="-100.3" font-family="Times,serif" font-size="14.00">+ ensure_rubygems! : void</text>
<text text-anchor="start" x="1249.5" y="-85.3" font-family="Times,serif" font-size="14.00">+ find_lib_paths : Array&lt;String&gt;</text>
<text text-anchor="start" x="1249.5" y="-70.3" font-family="Times,serif" font-size="14.00">+ find_or_install_lib_paths : Array&lt;String&gt;</text>
<text text-anchor="start" x="1249.5" y="-55.3" font-family="Times,serif" font-size="14.00">+ init_gem_dir_hash : Hash{(String)=&gt;Array&lt;String&gt;}</text>
</g>
<!-- Cinnabar_Command -->
<g id="node15" class="node">
<title>Cinnabar_Command</title>
<polygon fill="none" stroke="black" points="838.5,-40 838.5,-169 1223.5,-169 1223.5,-40 838.5,-40"/>
<text text-anchor="middle" x="1031" y="-153.8" font-family="Times,serif" font-size="14.00">module Command</text>
<polyline fill="none" stroke="black" points="838.5,-146 1223.5,-146 "/>
<text text-anchor="middle" x="1031" y="-130.8" font-family="Times,serif" font-size="14.00"> </text>
<polyline fill="none" stroke="black" points="838.5,-123 1223.5,-123 "/>
<text text-anchor="start" x="846.5" y="-107.8" font-family="Times,serif" font-size="14.00">+ async_run : Array(IO, Process::Waiter)</text>
<text text-anchor="start" x="846.5" y="-92.8" font-family="Times,serif" font-size="14.00">+ normalize_env : Hash{String =&gt; String}</text>
<text text-anchor="start" x="846.5" y="-77.8" font-family="Times,serif" font-size="14.00">+ run : String</text>
<text text-anchor="start" x="846.5" y="-62.8" font-family="Times,serif" font-size="14.00">+ run_cmd : Boolean</text>
<text text-anchor="start" x="846.5" y="-47.8" font-family="Times,serif" font-size="14.00">+ wait_with_output : Array(String, Process::Status)</text>
</g>
<!-- Cinnabar_Command_ArrExt -->
<g id="node16" class="node">
<title>Cinnabar_Command_ArrExt</title>
<polygon fill="none" stroke="black" points="3485.5,-55 3485.5,-154 3802.5,-154 3802.5,-55 3485.5,-55"/>
<text text-anchor="middle" x="3644" y="-138.8" font-family="Times,serif" font-size="14.00">module ArrExt</text>
<polyline fill="none" stroke="black" points="3485.5,-131 3802.5,-131 "/>
<text text-anchor="middle" x="3644" y="-115.8" font-family="Times,serif" font-size="14.00"> </text>
<polyline fill="none" stroke="black" points="3485.5,-108 3802.5,-108 "/>
<text text-anchor="start" x="3493.5" y="-92.8" font-family="Times,serif" font-size="14.00">+ #async_run : Array(IO, Process::Waiter)</text>
<text text-anchor="start" x="3493.5" y="-77.8" font-family="Times,serif" font-size="14.00">+ #run : String</text>
<text text-anchor="start" x="3493.5" y="-62.8" font-family="Times,serif" font-size="14.00">+ #run_cmd : Boolean</text>
</g>
<!-- Cinnabar_Command_ArrMixin -->
<g id="node17" class="node">
<title>Cinnabar_Command_ArrMixin</title>
<polygon fill="none" stroke="black" points="3330.5,-70 3330.5,-139 3467.5,-139 3467.5,-70 3330.5,-70"/>
<text text-anchor="middle" x="3399" y="-123.8" font-family="Times,serif" font-size="14.00">module ArrMixin</text>
<polyline fill="none" stroke="black" points="3330.5,-116 3467.5,-116 "/>
<text text-anchor="middle" x="3399" y="-100.8" font-family="Times,serif" font-size="14.00"> </text>
<polyline fill="none" stroke="black" points="3330.5,-93 3467.5,-93 "/>
<text text-anchor="start" x="3338.5" y="-77.8" font-family="Times,serif" font-size="14.00">+ included</text>
</g>
<!-- Cinnabar_Command_ArrRefin -->
<g id="node18" class="node">
<title>Cinnabar_Command_ArrRefin</title>
<polygon fill="none" stroke="black" points="3178,-70 3178,-139 3312,-139 3312,-70 3178,-70"/>
<text text-anchor="middle" x="3245" y="-123.8" font-family="Times,serif" font-size="14.00">module ArrRefin</text>
<polyline fill="none" stroke="black" points="3178,-116 3312,-116 "/>
<text text-anchor="middle" x="3245" y="-100.8" font-family="Times,serif" font-size="14.00"> </text>
<polyline fill="none" stroke="black" points="3178,-93 3312,-93 "/>
<text text-anchor="middle" x="3245" y="-77.8" font-family="Times,serif" font-size="14.00"> </text>
</g>
<!-- Cinnabar_Command_TaskArrExt -->
<g id="node19" class="node">
<title>Cinnabar_Command_TaskArrExt</title>
<polygon fill="none" stroke="black" points="2992,-70 2992,-139 3160,-139 3160,-70 2992,-70"/>
<text text-anchor="middle" x="3076" y="-123.8" font-family="Times,serif" font-size="14.00">module TaskArrExt</text>
<polyline fill="none" stroke="black" points="2992,-116 3160,-116 "/>
<text text-anchor="middle" x="3076" y="-100.8" font-family="Times,serif" font-size="14.00"> </text>
<polyline fill="none" stroke="black" points="2992,-93 3160,-93 "/>
<text text-anchor="start" x="3000" y="-77.8" font-family="Times,serif" font-size="14.00">+ #wait_with_output</text>
</g>
<!-- Cinnabar_Command_TaskArrRefin -->
<g id="node20" class="node">
<title>Cinnabar_Command_TaskArrRefin</title>
<polygon fill="none" stroke="black" points="2808,-70 2808,-139 2974,-139 2974,-70 2808,-70"/>
<text text-anchor="middle" x="2891" y="-123.8" font-family="Times,serif" font-size="14.00">module TaskArrRefin</text>
<polyline fill="none" stroke="black" points="2808,-116 2974,-116 "/>
<text text-anchor="middle" x="2891" y="-100.8" font-family="Times,serif" font-size="14.00"> </text>
<polyline fill="none" stroke="black" points="2808,-93 2974,-93 "/>
<text text-anchor="middle" x="2891" y="-77.8" font-family="Times,serif" font-size="14.00"> </text>
</g>
<!-- Cinnabar_Command_TaskArrMixin -->
<g id="node21" class="node">
<title>Cinnabar_Command_TaskArrMixin</title>
<polygon fill="none" stroke="black" points="2620,-70 2620,-139 2790,-139 2790,-70 2620,-70"/>
<text text-anchor="middle" x="2705" y="-123.8" font-family="Times,serif" font-size="14.00">module TaskArrMixin</text>
<polyline fill="none" stroke="black" points="2620,-116 2790,-116 "/>
<text text-anchor="middle" x="2705" y="-100.8" font-family="Times,serif" font-size="14.00"> </text>
<polyline fill="none" stroke="black" points="2620,-93 2790,-93 "/>
<text text-anchor="start" x="2628" y="-77.8" font-family="Times,serif" font-size="14.00">+ included</text>
</g>
<!-- Cinnabar_Downloader -->
<g id="node22" class="node">
<title>Cinnabar_Downloader</title>
<polygon fill="none" stroke="black" points="587.5,-47.5 587.5,-161.5 820.5,-161.5 820.5,-47.5 587.5,-47.5"/>
<text text-anchor="middle" x="704" y="-146.3" font-family="Times,serif" font-size="14.00">module Downloader</text>
<polyline fill="none" stroke="black" points="587.5,-138.5 820.5,-138.5 "/>
<text text-anchor="middle" x="704" y="-123.3" font-family="Times,serif" font-size="14.00"> </text>
<polyline fill="none" stroke="black" points="587.5,-115.5 820.5,-115.5 "/>
<text text-anchor="start" x="595.5" y="-100.3" font-family="Times,serif" font-size="14.00">+ build_headers : Hash</text>
<text text-anchor="start" x="595.5" y="-85.3" font-family="Times,serif" font-size="14.00">+ determine_filename : String</text>
<text text-anchor="start" x="595.5" y="-70.3" font-family="Times,serif" font-size="14.00">+ download : Integer</text>
<text text-anchor="start" x="595.5" y="-55.3" font-family="Times,serif" font-size="14.00">+ setup_file_path : Pathname</text>
</g>
<!-- Cinnabar_Downloader_StrExt -->
<g id="node23" class="node">
<title>Cinnabar_Downloader_StrExt</title>
<polygon fill="none" stroke="black" points="2416.5,-70 2416.5,-139 2595.5,-139 2595.5,-70 2416.5,-70"/>
<text text-anchor="middle" x="2506" y="-123.8" font-family="Times,serif" font-size="14.00">module StrExt</text>
<polyline fill="none" stroke="black" points="2416.5,-116 2595.5,-116 "/>
<text text-anchor="middle" x="2506" y="-100.8" font-family="Times,serif" font-size="14.00"> </text>
<polyline fill="none" stroke="black" points="2416.5,-93 2595.5,-93 "/>
<text text-anchor="start" x="2424.5" y="-77.8" font-family="Times,serif" font-size="14.00">+ #download : Integer</text>
</g>
<!-- Cinnabar_Downloader_StrMixin -->
<g id="node24" class="node">
<title>Cinnabar_Downloader_StrMixin</title>
<polygon fill="none" stroke="black" points="2261.5,-70 2261.5,-139 2398.5,-139 2398.5,-70 2261.5,-70"/>
<text text-anchor="middle" x="2330" y="-123.8" font-family="Times,serif" font-size="14.00">module StrMixin</text>
<polyline fill="none" stroke="black" points="2261.5,-116 2398.5,-116 "/>
<text text-anchor="middle" x="2330" y="-100.8" font-family="Times,serif" font-size="14.00"> </text>
<polyline fill="none" stroke="black" points="2261.5,-93 2398.5,-93 "/>
<text text-anchor="start" x="2269.5" y="-77.8" font-family="Times,serif" font-size="14.00">+ included</text>
</g>
<!-- Cinnabar_Downloader_StrRefin -->
<g id="node25" class="node">
<title>Cinnabar_Downloader_StrRefin</title>
<polygon fill="none" stroke="black" points="2110.5,-70 2110.5,-139 2243.5,-139 2243.5,-70 2110.5,-70"/>
<text text-anchor="middle" x="2177" y="-123.8" font-family="Times,serif" font-size="14.00">module StrRefin</text>
<polyline fill="none" stroke="black" points="2110.5,-116 2243.5,-116 "/>
<text text-anchor="middle" x="2177" y="-100.8" font-family="Times,serif" font-size="14.00"> </text>
<polyline fill="none" stroke="black" points="2110.5,-93 2243.5,-93 "/>
<text text-anchor="middle" x="2177" y="-77.8" font-family="Times,serif" font-size="14.00"> </text>
</g>
</g>
</svg>
